<svg width="683" height="650" viewBox="0 0 683 650" fill="none" xmlns="http://www.w3.org/2000/svg">
<path d="M683 636.011C683 636.085 530.089 636.159 341.515 636.159C152.94 636.159 -7.62939e-05 636.011 -7.62939e-05 636.011C-7.62939e-05 636.011 152.881 635.848 341.515 635.848C530.149 635.848 683 635.907 683 636.011Z" fill="white"/>
<path d="M683 649.629C683 649.718 530.089 649.778 341.515 649.778C152.94 649.778 -7.62939e-05 649.778 -7.62939e-05 649.629C-7.62939e-05 649.481 152.881 649.481 341.515 649.481C530.149 649.481 683 649.555 683 649.629Z" fill="white"/>
<path d="M297.183 650C297.094 650 297.035 646.769 297.035 642.798C297.035 638.827 297.035 635.596 297.183 635.596C297.331 635.596 297.331 638.827 297.331 642.798C297.331 646.769 297.272 650 297.183 650Z" fill="white"/>
<path d="M218.312 650C218.223 650 218.149 646.769 218.149 642.798C218.149 638.827 218.223 635.596 218.312 635.596C218.401 635.596 218.46 638.827 218.46 642.798C218.46 646.769 218.386 650 218.312 650Z" fill="white"/>
<path d="M139.427 650C139.338 650 139.279 646.769 139.279 642.798C139.279 638.827 139.279 635.596 139.427 635.596C139.575 635.596 139.575 638.827 139.575 642.798C139.575 646.769 139.516 650 139.427 650Z" fill="white"/>
<path d="M60.5568 650C60.4678 650 60.3937 646.769 60.3937 642.798C60.3937 638.827 60.3937 635.596 60.5568 635.596C60.7198 635.596 60.705 638.827 60.705 642.798C60.705 646.769 60.6309 650 60.5568 650Z" fill="white"/>
<path d="M376.571 650C376.482 650 376.408 646.769 376.408 642.798C376.408 638.827 376.482 635.596 376.571 635.596C376.66 635.596 376.72 638.827 376.72 642.798C376.72 646.769 376.646 650 376.571 650Z" fill="white"/>
<path d="M455.946 650C455.857 650 455.798 646.769 455.798 642.798C455.798 638.827 455.797 635.596 455.946 635.596C456.094 635.596 456.094 638.827 456.094 642.798C456.094 646.769 456.035 650 455.946 650Z" fill="white"/>
<path d="M535.335 650C535.246 650 535.172 646.769 535.172 642.798C535.172 638.827 535.246 635.596 535.335 635.596C535.424 635.596 535.483 638.827 535.483 642.798C535.483 646.769 535.409 650 535.335 650Z" fill="white"/>
<path d="M614.709 650C614.62 650 614.56 646.769 614.56 642.798C614.56 638.827 614.56 635.596 614.709 635.596C614.857 635.596 614.857 638.827 614.857 642.798C614.857 646.769 614.797 650 614.709 650Z" fill="white"/>
<path d="M590.186 556.064C592.002 556.929 593.624 558.152 594.956 559.659C596.287 561.167 597.301 562.928 597.935 564.836C599.176 568.658 599.531 572.712 598.972 576.691C598.098 584.397 593.712 592.192 588.986 598.356C582.496 592.695 581 582.797 580.555 577.729C579.844 569.727 583.518 554.819 590.186 556.019" fill="#FFC701"/>
<path d="M596.543 611.145C596.099 608.938 596.247 606.654 596.97 604.523C597.693 602.391 598.967 600.489 600.662 599.008C602.382 597.564 604.372 596.476 606.516 595.807C608.66 595.138 610.916 594.902 613.152 595.111C614.192 595.097 615.223 595.31 616.172 595.735C617.122 596.16 617.967 596.786 618.649 597.571C619.152 598.403 619.423 599.353 619.436 600.325C619.449 601.296 619.203 602.254 618.724 603.098C617.745 604.783 616.333 606.175 614.634 607.129C609.004 610.671 602.899 613.057 596.543 611.145Z" fill="#FFC701"/>
<path d="M588.2 634.811C588.242 634.277 588.321 633.747 588.437 633.225C588.645 632.114 588.912 630.661 589.223 628.942C589.959 624.169 591.46 619.545 593.668 615.25C595.953 610.955 599.345 607.348 603.491 604.803C604.751 604.056 606.094 603.459 607.492 603.025C607.871 602.907 608.257 602.813 608.648 602.743C608.785 602.719 608.925 602.719 609.063 602.743C605.848 603.78 602.873 605.449 600.313 607.653C597.753 609.857 595.66 612.551 594.157 615.576C591.988 619.827 590.46 624.377 589.623 629.076C589.238 630.869 588.912 632.321 588.675 633.329C588.565 633.837 588.407 634.333 588.2 634.811Z" fill="url(#paint0_linear_349_724)"/>
<path d="M588.452 567.652C588.499 567.876 588.524 568.104 588.526 568.334C588.526 568.852 588.526 569.519 588.645 570.334C588.749 572.053 588.838 574.557 588.941 577.654C589.149 583.834 589.297 592.384 589.253 601.824C589.208 611.263 588.986 619.814 588.734 625.993C588.601 629.09 588.482 631.58 588.378 633.313C588.378 634.128 588.275 634.795 588.245 635.299C588.234 635.533 588.204 635.766 588.156 635.995C588.134 635.764 588.134 635.531 588.156 635.299C588.156 634.78 588.156 634.114 588.156 633.299C588.156 631.505 588.26 629.016 588.334 625.978C588.482 619.799 588.66 611.248 588.704 601.824C588.749 592.399 588.704 583.849 588.541 577.654C588.541 574.617 588.452 572.142 588.423 570.334V568.348C588.41 568.116 588.42 567.883 588.452 567.652Z" fill="url(#paint1_linear_349_724)"/>
<path d="M585.296 615.843C584.512 611.164 582.625 606.74 579.79 602.936C576.956 599.133 573.256 596.059 568.998 593.97C566.835 592.933 563.99 592.251 562.212 593.866C560.434 595.482 560.819 598.386 561.693 600.639C563.603 605.3 566.849 609.291 571.023 612.11C575.197 614.929 580.112 616.449 585.148 616.48" fill="#FFC701"/>
<path d="M570.05 601.291C570.524 601.457 570.985 601.66 571.428 601.898C571.968 602.141 572.493 602.418 572.998 602.728C573.576 603.099 574.287 603.454 574.969 603.973C575.758 604.502 576.519 605.071 577.251 605.677C578.051 606.314 578.836 607.07 579.666 607.87C581.406 609.671 582.941 611.659 584.244 613.798C585.497 615.956 586.491 618.254 587.208 620.644C587.526 621.685 587.783 622.744 587.978 623.815C588.164 624.745 588.293 625.685 588.363 626.631C588.439 627.409 588.473 628.19 588.467 628.972C588.514 629.559 588.514 630.148 588.467 630.735C588.451 631.233 588.396 631.728 588.304 632.217C588.171 632.217 588.393 630.068 588.008 626.66C587.916 625.728 587.767 624.803 587.563 623.889C587.385 622.896 587.074 621.859 586.763 620.777C586.017 618.445 585.024 616.2 583.8 614.079C582.525 611.988 581.036 610.036 579.355 608.255C578.616 607.477 577.834 606.74 577.014 606.047C576.273 605.366 575.532 604.832 574.821 604.314C571.961 602.298 569.99 601.409 570.05 601.291Z" fill="url(#paint2_linear_349_724)"/>
<path d="M452.871 276.12L392.868 263.55C385.231 261.95 378.427 263.584 377.67 267.198L362.051 341.776C361.294 345.391 366.871 349.618 374.507 351.218L434.51 363.787C442.147 365.387 448.951 363.754 449.708 360.139L465.327 285.561C466.084 281.946 460.507 277.719 452.871 276.12Z" fill="#262727"/>
<path d="M423.826 341.571C420.909 342.634 417.842 343.225 414.739 343.32C407.302 343.567 400.045 341 394.416 336.131C388.788 331.263 385.201 324.452 384.372 317.056C383.543 309.66 385.533 302.223 389.944 296.23C394.354 290.236 400.863 286.125 408.17 284.718C415.477 283.311 423.046 284.711 429.367 288.639C435.687 292.566 440.295 298.733 442.271 305.908C444.247 313.083 443.446 320.739 440.027 327.349C436.608 333.96 430.823 339.038 423.826 341.571Z" fill="#FFC727"/>
<path d="M423.235 312.283C422.871 314.025 422 315.621 420.73 316.869C419.46 318.116 417.849 318.959 416.1 319.291C414.352 319.624 412.544 319.43 410.905 318.735C409.267 318.04 407.871 316.875 406.894 315.387C405.917 313.898 405.403 312.154 405.417 310.374C405.431 308.594 405.972 306.858 406.973 305.385C407.973 303.913 409.387 302.77 411.036 302.101C412.686 301.432 414.496 301.266 416.239 301.626C417.4 301.864 418.501 302.329 419.481 302.994C420.461 303.659 421.3 304.511 421.95 305.501C422.6 306.491 423.048 307.6 423.269 308.764C423.489 309.928 423.477 311.124 423.235 312.283Z" fill="white"/>
<path d="M424.583 337.939L423.826 341.571C420.91 342.635 417.842 343.226 414.739 343.321C410.815 343.464 406.903 342.821 403.232 341.428C399.561 340.035 396.206 337.92 393.364 335.21L394.12 331.587C394.493 329.545 395.271 327.599 396.408 325.862C397.545 324.125 399.018 322.634 400.74 321.475C402.462 320.316 404.399 319.514 406.436 319.115C408.473 318.716 410.569 318.729 412.601 319.153C414.633 319.576 416.559 320.402 418.267 321.582C419.975 322.762 421.43 324.271 422.546 326.022C423.661 327.772 424.416 329.728 424.764 331.774C425.112 333.821 425.048 335.916 424.574 337.937L424.583 337.939Z" fill="white"/>
<path d="M311.437 243.165L367.326 274.002L360.243 293.267C360.243 293.267 310.962 279.93 282.158 260.843L311.437 243.165Z" fill="#FFD5BD"/>
<path d="M398.545 266.667C398.545 266.667 387.344 261.807 385.595 261.259C383.847 260.71 374.675 262.251 374.675 262.251L363.8 275.055L360.244 293.282C363.884 294.551 367.696 295.26 371.549 295.386C377.239 295.386 389.329 288.94 389.329 288.94C389.329 288.94 393.493 291.4 394.145 290.94C394.797 290.481 397.523 288.095 396.545 286.495C396.545 286.495 399.864 282.998 398.886 281.041L397.019 279.56C397.019 279.56 401.716 275.396 398.101 273.44C398.071 273.543 402.442 269.601 398.545 266.667Z" fill="#FFD5BD"/>
<path d="M398.027 272.951C397.893 273.159 395.063 271.38 391.255 269.676C387.447 267.972 384.277 266.949 384.336 266.712C389.385 267.497 394.121 269.655 398.027 272.951Z" fill="#FFB294"/>
<path d="M397.804 280.079C397.73 280.183 397.093 279.812 396.056 279.294L391.877 277.397C389.857 276.567 387.954 275.476 386.217 274.151C388.325 274.708 390.352 275.535 392.248 276.611C393.649 277.264 395.01 278.002 396.322 278.819C397.33 279.442 397.804 279.99 397.804 280.079Z" fill="#FFB294"/>
<path d="M387.195 280.212C389.147 280.227 391.037 280.9 392.559 282.124C394.247 283.102 395.549 284.629 396.248 286.451C396.041 286.599 394.589 284.539 392.07 282.835C389.551 281.131 387.136 280.464 387.195 280.212Z" fill="#FFB294"/>
<path d="M417.508 370.478C417.374 370.478 417.271 368.092 416.752 364.269C416.065 359.305 414.909 354.418 413.3 349.673C411.665 344.933 409.576 340.362 407.062 336.025C405.136 332.691 403.832 330.675 403.832 330.675C404.244 331.059 404.607 331.492 404.913 331.964C405.58 332.824 406.469 334.113 407.506 335.758C410.182 340.056 412.359 344.645 413.996 349.436C415.635 354.238 416.733 359.208 417.271 364.254C417.44 365.775 417.529 367.303 417.537 368.833C417.596 369.381 417.586 369.933 417.508 370.478Z" fill="#263238"/>
<path d="M420.723 346.976C419.912 345.746 419.184 344.464 418.545 343.138C417.241 340.752 415.389 337.492 413.137 334.009C410.885 330.527 408.692 327.474 407.047 325.296C406.1 324.168 405.234 322.974 404.454 321.725C405.554 322.698 406.547 323.786 407.417 324.97C409.697 327.707 411.805 330.582 413.729 333.58C415.658 336.577 417.409 339.684 418.975 342.886C419.703 344.182 420.29 345.553 420.723 346.976Z" fill="#263238"/>
<path d="M209.096 559.976L188.352 593.318C188.352 593.318 215.289 625.563 212.059 632.098L145.976 594.266L176.114 540.993L209.096 559.976Z" fill="#FFC701"/>
<path d="M169.624 578.751C168.877 578.581 168.093 578.693 167.424 579.065C166.754 579.437 166.245 580.043 165.994 580.767C165.789 581.506 165.878 582.295 166.243 582.969C166.608 583.644 167.219 584.15 167.95 584.383C168.742 584.562 169.572 584.441 170.28 584.044C170.989 583.648 171.526 583.003 171.787 582.234C171.918 581.44 171.734 580.626 171.275 579.965C170.816 579.303 170.117 578.847 169.328 578.692" fill="#E0E0E0"/>
<path d="M146.006 594.267L149.251 589.021L211.393 627.253C211.393 627.253 213.601 630.217 212.089 632.099L146.006 594.267Z" fill="#263238"/>
<path d="M189.657 593.6C189.449 593.911 187.76 593.14 185.582 593.259C183.404 593.378 181.774 594.267 181.552 593.97C181.33 593.674 182.87 592.073 185.523 591.97C188.175 591.866 189.894 593.333 189.657 593.6Z" fill="#263238"/>
<path d="M194.946 600.446C194.828 600.802 193.124 600.55 191.242 601.291C189.36 602.032 188.279 603.292 187.908 603.084C187.538 602.877 188.442 600.95 190.797 600.12C193.153 599.29 195.109 600.12 194.946 600.446Z" fill="#263238"/>
<path d="M194.131 610.982C193.791 610.879 194.265 609.011 196.102 607.722C197.939 606.433 199.865 606.581 199.851 606.937C199.836 607.292 198.369 607.692 196.887 608.774C195.406 609.856 194.472 611.131 194.131 610.982Z" fill="#263238"/>
<path d="M193.524 585.479C193.227 585.687 192.042 584.397 190.101 583.479C188.16 582.56 186.456 582.323 186.441 581.997C186.426 581.671 188.471 581.256 190.679 582.382C192.886 583.508 193.835 585.316 193.524 585.479Z" fill="#263238"/>
<path d="M206.222 573.668L203.985 612.864C203.985 612.864 243.071 628.29 243.353 635.566L167.239 633.966L168.202 572.779L206.222 573.668Z" fill="#FFC701"/>
<path d="M180.515 609.07C179.778 609.276 179.143 609.747 178.732 610.393C178.322 611.039 178.165 611.813 178.292 612.568C178.466 613.316 178.923 613.966 179.567 614.384C180.211 614.801 180.991 614.953 181.744 614.806C182.526 614.587 183.199 614.085 183.631 613.397C184.064 612.71 184.226 611.886 184.085 611.086C183.819 610.328 183.268 609.703 182.549 609.343C181.83 608.984 181 608.918 180.233 609.159" fill="#E0E0E0"/>
<path d="M167.239 633.967L167.579 627.802L240.434 631.655C240.434 631.655 243.798 633.137 243.397 635.567L167.239 633.967Z" fill="#263238"/>
<path d="M205.185 612.494C205.185 612.864 203.303 612.998 201.451 614.154C199.599 615.31 198.591 616.851 198.25 616.703C197.909 616.555 198.517 614.406 200.784 613.057C203.051 611.708 205.318 612.153 205.185 612.494Z" fill="#263238"/>
<path d="M213.141 615.976C213.23 616.332 211.66 616.925 210.311 618.481C208.963 620.037 208.607 621.682 208.237 621.652C207.866 621.623 207.674 619.518 209.333 617.636C210.993 615.754 213.141 615.62 213.141 615.976Z" fill="#263238"/>
<path d="M217.483 625.638C217.142 625.712 216.668 623.845 217.66 621.83C218.653 619.814 220.417 619.029 220.625 619.355C220.832 619.681 219.676 620.733 218.876 622.393C218.075 624.053 217.853 625.638 217.483 625.638Z" fill="#263238"/>
<path d="M204.755 603.514C204.592 603.855 202.888 603.306 200.784 603.395C198.68 603.484 197.035 604.121 196.842 603.795C196.65 603.469 198.324 602.18 200.739 602.106C203.154 602.032 204.932 603.217 204.755 603.514Z" fill="#263238"/>
<path d="M172.588 332.226C172.588 332.226 167.861 353.743 169.965 356.884C172.069 360.026 175.729 370.014 175.729 370.014L172.588 467.077L163.149 609.797H208.489L227.944 483.941C227.944 483.941 234.759 472.397 237.382 462.424C240.004 452.451 255.488 353.298 255.488 353.298V315.066L172.588 332.226Z" fill="#263238"/>
<path d="M275.95 317.659C275.95 317.659 266.482 447.694 263.341 459.238C260.2 470.781 195.746 588.813 195.746 588.813L156.852 569.726L208.43 445.1V324.816L275.95 317.659Z" fill="#263238"/>
<path d="M260.437 328.847C260.453 329.094 260.453 329.341 260.437 329.588L260.14 331.737C259.844 333.663 259.429 336.434 258.896 339.991C257.77 347.193 256.14 357.536 254.14 370.31L246.894 415.211C245.531 423.673 244.168 432.549 242.582 441.752C241.072 451.286 238.707 460.664 235.515 469.774C232.107 479.095 227.232 487.556 225.587 496.759C223.632 505.843 222.283 514.749 220.95 523.211C218.386 540.134 216.327 555.427 214.564 568.274C212.8 581.122 211.393 591.496 210.311 598.668C209.778 602.254 209.333 605.025 208.992 606.907C208.834 607.816 208.701 608.527 208.592 609.041C208.561 609.288 208.506 609.531 208.429 609.767C208.428 609.518 208.452 609.27 208.503 609.026C208.503 608.493 208.681 607.781 208.815 606.877L209.956 598.609C210.889 591.377 212.237 580.989 213.897 568.186C215.556 555.382 217.571 540.03 220.09 523.077C221.394 514.601 222.743 505.71 224.684 496.552C226.358 487.23 231.262 478.665 234.64 469.448C237.809 460.389 240.164 451.066 241.679 441.589C243.264 432.416 244.642 423.524 246.124 415.078C248.894 398.184 251.384 382.965 253.532 370.162C255.681 357.359 257.37 347.074 258.57 339.887C259.192 336.345 259.666 333.589 260.051 331.663C260.219 330.764 260.353 330.052 260.452 329.529C260.427 329.302 260.422 329.074 260.437 328.847Z" fill="#455A64"/>
<path d="M168.142 533.154C168.227 534.14 168.227 535.131 168.142 536.118C168.142 538.044 167.95 540.83 167.757 544.283C167.357 551.173 166.675 560.702 165.875 571.193C165.075 581.685 164.394 591.213 163.949 598.104C163.727 601.423 163.549 604.18 163.416 606.269C163.393 607.264 163.289 608.255 163.105 609.233C163.024 608.247 163.024 607.255 163.105 606.269C163.105 604.328 163.208 601.542 163.342 598.089C163.623 591.184 164.201 581.655 165.001 571.149C165.801 560.642 166.587 551.292 167.15 544.253C167.431 540.934 167.653 538.192 167.831 536.103C167.859 535.113 167.963 534.127 168.142 533.154Z" fill="#455A64"/>
<path d="M225.528 41.4216L214.771 113.056C212.934 125.237 212.726 143.508 232.122 145.524C249.072 145.998 255.68 130.794 257.31 119.428C258.11 114.034 258.792 109.544 258.911 109.055C258.911 109.055 277.402 110.077 281.432 92.2204C283.388 83.5959 285.951 65.5466 288.07 49.1125C289.171 40.6254 287.039 32.0348 282.098 25.0476C277.156 18.0604 269.768 13.1881 261.4 11.3987L259.681 11.0282C240.864 8.09408 227.884 22.5128 225.528 41.4216Z" fill="#FFD5BD"/>
<path d="M259.074 108.743C250.779 107.136 243.151 103.097 237.159 97.1404C237.159 97.1404 239.93 111.188 258.125 113.441L259.074 108.743Z" fill="#FFB294"/>
<path d="M283.581 57.3966C283.195 57.693 280.795 56.5963 277.402 56.7742C274.009 56.952 271.564 58.2562 271.194 57.9746C270.823 57.693 271.401 57.3225 272.468 56.7297C274.006 55.9159 275.708 55.46 277.446 55.3959C279.126 55.2909 280.807 55.5854 282.351 56.2554C283.403 56.7593 283.714 57.2632 283.581 57.3966Z" fill="#263238"/>
<path d="M255.369 54.4924C254.895 54.5961 253.236 52.5657 250.139 51.2319C247.042 49.8981 244.212 49.9426 244.064 49.5424C243.946 49.3646 244.524 49.0682 245.753 49.0089C247.479 48.9832 249.188 49.3373 250.761 50.0463C252.317 50.6999 253.694 51.7162 254.777 53.0104C255.562 53.8551 255.562 54.4627 255.369 54.4924Z" fill="#263238"/>
<path d="M253.77 60.2566C253.666 60.7723 253.364 61.2269 252.929 61.5232C252.495 61.8195 251.961 61.934 251.443 61.8424C251.189 61.8079 250.943 61.7232 250.722 61.5932C250.5 61.4632 250.306 61.2905 250.152 61.085C249.998 60.8796 249.885 60.6456 249.822 60.3966C249.759 60.1475 249.746 59.8884 249.783 59.6342C249.894 59.1239 250.199 58.6766 250.633 58.3863C251.067 58.096 251.596 57.9855 252.11 58.078C252.364 58.1089 252.608 58.1902 252.83 58.3172C253.051 58.4441 253.245 58.6141 253.4 58.8172C253.554 59.0202 253.667 59.2522 253.73 59.4994C253.794 59.7467 253.807 60.0041 253.77 60.2566Z" fill="#263238"/>
<path d="M280.292 64.8653C280.192 65.3829 279.891 65.8398 279.455 66.1368C279.019 66.4337 278.484 66.5467 277.965 66.451C277.709 66.4204 277.462 66.3382 277.238 66.2094C277.014 66.0806 276.819 65.9078 276.664 65.7014C276.509 65.4951 276.397 65.2595 276.336 65.0088C276.274 64.7581 276.264 64.4975 276.306 64.2428C276.41 63.7271 276.711 63.2726 277.146 62.9763C277.581 62.68 278.114 62.5654 278.632 62.657C278.888 62.6896 279.134 62.7731 279.357 62.9025C279.58 63.032 279.774 63.2047 279.929 63.4106C280.083 63.6164 280.195 63.8512 280.258 64.1011C280.32 64.351 280.332 64.6108 280.292 64.8653Z" fill="#263238"/>
<path d="M260.941 74.2896C262.487 74.1519 264.044 74.2017 265.578 74.4378C266.289 74.4378 267.06 74.4378 267.208 74.0674C267.425 73.3574 267.425 72.599 267.208 71.889L266.275 66.0949C265 57.8706 264.26 51.1577 264.586 51.1133C264.911 51.0688 266.215 57.6927 267.549 65.9319C267.845 67.9621 268.127 69.8885 268.393 71.7408C268.649 72.6815 268.571 73.682 268.171 74.5712C268.016 74.7982 267.812 74.987 267.573 75.1231C267.334 75.2592 267.068 75.339 266.793 75.3566C266.381 75.3833 265.967 75.3534 265.563 75.2677C263.986 75.1488 262.431 74.8199 260.941 74.2896Z" fill="#263238"/>
<path d="M256.54 40.6515C256.155 41.2739 253.799 40.444 250.88 40.192C247.961 39.9401 245.486 40.192 245.234 39.5548C245.131 39.2287 245.664 38.6655 246.716 38.2061C248.127 37.6469 249.652 37.4384 251.161 37.5985C252.66 37.7385 254.1 38.2477 255.354 39.0805C256.288 39.6881 256.703 40.2958 256.54 40.6515Z" fill="#263238"/>
<path d="M284.499 50.2094C284.099 50.7133 281.832 49.7796 278.973 49.2906C276.113 48.8015 273.698 48.8608 273.476 48.2383C273.387 47.9567 273.92 47.527 274.957 47.2305C276.369 46.8769 277.84 46.8364 279.269 47.112C280.722 47.356 282.106 47.9067 283.329 48.7274C284.292 49.3795 284.677 49.9723 284.499 50.2094Z" fill="#263238"/>
<path d="M224.18 54.981C223.898 54.7883 212.652 48.7275 210.445 61.0566C208.237 73.3857 221.054 73.0449 221.128 72.7041C221.202 72.3632 224.18 54.981 224.18 54.981Z" fill="#FFD5BD"/>
<path d="M218.209 67.3545C218.209 67.3545 217.972 67.473 217.572 67.5768C217.024 67.6942 216.452 67.5988 215.971 67.31C214.756 66.5987 214.03 64.3463 214.371 62.1087C214.527 61.0483 214.916 60.0359 215.512 59.145C215.7 58.7826 215.971 58.4701 216.303 58.2331C216.636 57.9961 217.02 57.8414 217.423 57.7816C217.683 57.7615 217.941 57.8316 218.154 57.9802C218.367 58.1287 218.523 58.3466 218.594 58.5967C218.698 58.9819 218.594 59.2042 218.594 59.2487C218.594 59.2931 218.905 59.0857 218.89 58.5522C218.883 58.2342 218.762 57.9294 218.549 57.6927C218.254 57.3821 217.851 57.1965 217.423 57.1741C216.901 57.1796 216.388 57.3187 215.934 57.5781C215.481 57.8374 215.101 58.2084 214.83 58.6559C214.113 59.6297 213.645 60.7642 213.467 61.9605C213.112 64.4649 213.956 67.0137 215.645 67.888C215.962 68.0393 216.309 68.1178 216.66 68.1178C217.011 68.1178 217.358 68.0393 217.675 67.888C218.135 67.6509 218.253 67.3841 218.209 67.3545Z" fill="#FFB294"/>
<path d="M256.836 82.4706C257.014 82.1742 254.688 81.122 253.295 78.6025C252.721 77.5072 252.292 76.3413 252.021 75.1346C251.784 74.1861 251.591 73.5785 251.443 73.6526C251.295 73.7267 251.265 74.2899 251.324 75.2828C251.406 76.6316 251.78 77.9465 252.421 79.1361C253.097 80.3217 254.073 81.3082 255.251 81.9964C256.155 82.4558 256.792 82.5744 256.836 82.4706Z" fill="#263238"/>
<path d="M314.37 36.1309C314.249 35.375 313.84 34.6953 313.229 34.2341C311.892 33.3984 310.36 32.9235 308.784 32.856C303.977 32.095 299.474 30.0178 295.775 26.8544C294.254 23.8724 292.495 21.018 290.515 18.3189C285.803 11.9172 281.832 7.45682 277.432 4.98211C271.742 1.73682 261.8 -0.63416 255.206 0.151229C248.613 0.936618 242.36 5.24885 240.597 11.5616C237.485 8.10885 232.181 7.39755 227.662 8.59786H227.558C222.535 9.63517 219.127 14.3179 217.053 18.9709C214.978 23.624 213.645 28.7809 210.459 32.7967C209.793 33.6266 208.978 34.6342 209.348 35.6567C209.515 36.037 209.795 36.3565 210.151 36.5713C210.506 36.7862 210.919 36.886 211.334 36.857C212.159 36.792 212.961 36.5547 213.689 36.1606L211.571 39.7763C213.268 40.2986 215.062 40.4254 216.816 40.1468C217.087 44.6214 217.632 49.0753 218.446 53.4836C220.258 53.5106 221.998 54.2013 223.335 55.4248C224.817 57.1586 225.158 60.0927 228.091 59.3962C229.573 59.0554 231.277 56.2547 231.959 54.8765C236.427 45.6987 238.868 35.6665 239.115 25.4615C241.393 23.6189 244.004 22.2305 246.805 21.3715L246.568 21.5346C251.858 20.4824 257.799 19.534 262.259 22.5719C265.726 24.9132 267.386 29.0773 269.668 32.53C271.846 35.7211 274.646 38.4395 277.899 40.5224C281.153 42.6053 284.794 44.0098 288.604 44.6517C288.174 49.7789 286.752 56.9067 286.322 62.0339L291.715 54.4616C292.145 53.9133 292.515 53.3502 292.886 52.7871L293.004 52.6241C293.582 51.7202 294.145 50.8162 294.842 49.9271C295.333 50.6326 296.084 51.114 296.93 51.2654C297.776 51.4169 298.648 51.226 299.353 50.7347C300.059 50.2434 300.54 49.4921 300.692 48.6458C300.843 47.7996 300.652 46.9279 300.161 46.2224C299.821 45.5704 299.376 44.9795 298.842 44.4738C299.384 45.1614 300.094 45.6974 300.904 46.0297C301.714 46.362 302.596 46.4794 303.465 46.3706C304.327 46.2318 305.12 45.8125 305.72 45.1776C306.32 44.5427 306.694 43.7276 306.784 42.8586C306.792 42.2657 306.646 41.6809 306.361 41.1613C306.075 40.6418 305.659 40.2054 305.154 39.8949C307.37 40.3885 309.683 40.2026 311.792 39.3614C313.17 38.8131 314.578 37.7906 314.37 36.1309Z" fill="#1E1E1E"/>
<path d="M245.99 14.3772C245.277 14.8192 244.599 15.3146 243.961 15.8591C242.294 17.3877 241.054 19.323 240.36 21.4753C239.841 22.9454 239.473 24.4649 239.264 26.0098C239.026 27.6695 238.908 29.4774 238.775 31.3742C238.675 33.3619 238.452 35.3415 238.108 37.3017C237.902 38.3436 237.62 39.3689 237.263 40.3691C236.953 41.4507 236.371 42.4352 235.574 43.2291C235.212 43.5374 234.775 43.746 234.307 43.8344C233.84 43.9227 233.357 43.8878 232.907 43.733C232.039 43.4482 231.293 42.8792 230.788 42.1177C229.997 40.6342 229.613 38.9671 229.677 37.2868L230.047 37.3758C229.34 38.6396 228.452 39.7928 227.41 40.7989C226.39 41.7633 225.035 42.2945 223.632 42.2807C222.982 42.2611 222.351 42.061 221.809 41.7028C221.302 41.3316 220.919 40.8147 220.713 40.2209C220.513 39.6917 220.457 39.1192 220.55 38.5613C220.644 38.0414 220.923 37.5731 221.335 37.2424L221.498 37.435C220.254 38.5187 218.795 39.3267 217.216 39.806C216.798 39.9372 216.373 40.0412 215.942 40.1172C215.794 40.1371 215.645 40.1371 215.497 40.1172C215.637 40.0666 215.781 40.027 215.927 39.9987C216.223 39.9987 216.638 39.8208 217.172 39.643C218.705 39.1148 220.116 38.2833 221.32 37.1979L221.498 37.3906C221.15 37.7295 220.916 38.1683 220.828 38.6462C220.741 39.1242 220.804 39.6175 221.009 40.0579C221.198 40.5727 221.545 41.0139 222.002 41.3175C222.493 41.6363 223.061 41.8156 223.647 41.8362C224.951 41.8474 226.209 41.3536 227.158 40.458C228.192 39.4541 229.075 38.3062 229.781 37.0497L230.122 36.5015V37.1387C230.063 38.747 230.431 40.3422 231.188 41.7621C231.626 42.458 232.291 42.9814 233.07 43.2439C233.451 43.3777 233.861 43.4097 234.259 43.337C234.656 43.2642 235.028 43.0892 235.337 42.829C236.077 42.0806 236.617 41.1584 236.908 40.1468C237.253 39.1794 237.53 38.1891 237.737 37.1831C238.088 35.223 238.32 33.2436 238.434 31.2557C238.582 29.3589 238.701 27.551 238.952 25.8765C239.184 24.3091 239.576 22.7698 240.123 21.2827C240.851 19.1025 242.15 17.1577 243.886 15.6516C244.511 15.1109 245.222 14.68 245.99 14.3772Z" fill="#505050"/>
<path d="M299.465 39.6579C299.415 39.7 299.361 39.7349 299.302 39.7616L298.813 40.0283C298.539 40.173 298.257 40.3017 297.968 40.4136C297.589 40.5849 297.198 40.7285 296.797 40.8433C294.223 41.6089 291.499 41.7209 288.87 41.1693C284.953 40.3654 281.351 38.4459 278.499 35.642C275.074 32.191 272.392 28.076 270.616 23.55C269.594 21.179 268.838 18.7932 267.934 16.5556C267.137 14.3894 266.035 12.3485 264.66 10.4947C263.415 8.82936 261.775 7.50015 259.889 6.62707C259.031 6.25741 258.121 6.02248 257.192 5.93059C256.33 5.86126 255.464 5.9061 254.614 6.06396C253.143 6.35259 251.749 6.94844 250.524 7.81256C249.6 8.46658 248.789 9.2675 248.124 10.1835C247.588 10.9881 247.151 11.8537 246.82 12.762C246.82 12.762 246.82 12.762 246.82 12.5694L246.983 12.0359C247.225 11.348 247.549 10.6914 247.946 10.0798C248.631 9.15134 249.468 8.34481 250.421 7.69401C251.661 6.78708 253.08 6.15554 254.584 5.84168C255.462 5.6663 256.359 5.61146 257.251 5.67867C258.216 5.75676 259.162 5.99201 260.052 6.37515C262.009 7.25518 263.711 8.61631 265 10.3317C266.407 12.212 267.54 14.2826 268.364 16.4815C269.268 18.7339 270.023 21.1197 271.031 23.4611C272.792 27.9314 275.432 32.0029 278.795 35.4345C281.58 38.1988 285.096 40.1111 288.93 40.9471C291.515 41.5139 294.199 41.4478 296.753 40.7544C297.676 40.4391 298.582 40.073 299.465 39.6579Z" fill="#505050"/>
<path d="M302.206 31.9379C301.991 32.0999 301.75 32.2251 301.495 32.3084C300.824 32.5903 300.136 32.8279 299.435 33.0197C298.396 33.3 297.335 33.4933 296.264 33.5977C293.627 33.8577 290.965 33.5753 288.441 32.7678C287.42 32.4498 286.428 32.0431 285.477 31.5525C284.831 31.2275 284.211 30.8508 283.625 30.4262C283.21 30.1298 282.988 29.9519 283.003 29.9223C283.018 29.8927 283.966 30.5003 285.611 31.271C286.566 31.7262 287.557 32.1028 288.574 32.3973C289.82 32.7542 291.094 33.0071 292.382 33.1531C293.674 33.2556 294.972 33.2556 296.264 33.1531C297.317 33.0651 298.361 32.9016 299.391 32.6641C301.124 32.3084 302.176 31.8638 302.206 31.9379Z" fill="#505050"/>
<path d="M364.229 272.254C364.081 272.432 362.747 271.543 361.117 270.698C359.487 269.854 357.976 269.35 358.035 269.127C359.247 269.044 360.453 269.356 361.473 270.017C363.251 270.906 364.362 272.106 364.229 272.254Z" fill="#263238"/>
<path d="M274.068 230.791C274.068 228.509 257.77 126.852 257.77 126.852C254.406 123.518 216.371 94.5916 216.371 94.5916L182.292 133.906C182.292 133.906 173.284 165.025 170.246 187.668C168.261 202.591 159.119 273.751 156.318 303.803C155.943 307.786 156.618 311.798 158.277 315.438C159.936 319.078 162.52 322.22 165.771 324.55L169.283 324.979L170.039 333.974C200.813 335.278 275.372 323.053 276.291 323.601C277.491 324.372 273.846 239.03 274.068 230.791Z" fill="#FFC701"/>
<path d="M209.022 169.308C209.022 169.308 242.493 256.961 261.222 267.719C279.951 278.478 337.307 294.393 337.307 294.393L342.893 292.007L352.45 294.393L367.592 266.504L295.479 229.457C295.479 229.457 260.585 136.751 258.11 134.884C255.636 133.017 249.22 122.273 233.337 129.045C217.453 135.817 204.251 157.26 209.022 169.308Z" fill="#FFC701"/>
<path d="M276.572 312.502C276.227 312.627 275.869 312.717 275.506 312.769L272.438 313.391C269.757 313.939 265.875 314.621 261.059 315.391C251.443 316.962 238.078 318.696 223.276 320.237C208.474 321.778 195.124 322.979 185.374 323.897L173.876 324.949L170.75 325.216C170.386 325.256 170.018 325.256 169.654 325.216C170.007 325.119 170.37 325.054 170.735 325.024L173.847 324.609C176.543 324.268 180.47 323.823 185.315 323.305L223.202 319.437C238.019 317.955 251.354 316.236 260.985 314.814C265.8 314.102 269.697 313.495 272.379 313.05L275.476 312.576C275.838 312.515 276.205 312.49 276.572 312.502Z" fill="#263238"/>
<path d="M216.416 139.581C215.912 140.126 215.475 140.728 215.112 141.374C214.193 143.304 213.574 145.363 213.275 147.48C212.706 150.817 212.513 154.206 212.697 157.586C213.305 162.034 214.506 166.379 216.268 170.508C223.054 189.313 233.085 215.083 245.235 243.12C246.716 246.632 248.198 250.07 249.961 253.36C251.552 256.624 253.516 259.692 255.814 262.503C258.298 264.961 261.134 267.034 264.23 268.653C267.267 270.298 270.305 271.78 273.342 273.099C285.492 278.285 296.842 281.99 306.354 285.028C315.867 288.066 323.631 290.363 328.995 291.948L335.173 293.786L336.774 294.275L337.307 294.467C337.119 294.454 336.935 294.414 336.759 294.349L335.129 293.934L328.921 292.215C323.527 290.733 315.748 288.481 306.177 285.532C296.605 282.583 285.27 278.908 273.061 273.677C270.009 272.387 266.941 270.905 263.874 269.231C260.702 267.574 257.795 265.451 255.251 262.933C252.925 260.074 250.937 256.956 249.324 253.642C247.605 250.322 246.064 246.869 244.568 243.357C232.418 215.35 222.461 189.521 215.794 170.656C214.054 166.48 212.882 162.089 212.312 157.601C212.162 154.187 212.401 150.766 213.023 147.406C213.352 145.265 214.027 143.193 215.023 141.271C215.362 140.615 215.837 140.039 216.416 139.581Z" fill="#263238"/>
<path d="M295.479 229.472C295.597 229.665 292.515 231.354 289.404 234.392C286.292 237.43 284.44 240.394 284.247 240.319C285.295 237.861 286.874 235.664 288.87 233.888C290.687 231.907 292.953 230.392 295.479 229.472Z" fill="#263238"/>
<path d="M200.888 91.8056C195.509 93.2875 190.975 96.7847 186.619 100.252L167.802 115.219C164.157 118.094 160.393 121.147 158.689 125.592C156.289 131.801 159.149 139.27 164.409 143.375C169.669 147.479 176.781 148.605 183.404 147.82C190.027 147.035 196.265 144.382 202.355 141.626L217.764 95.6881C214.638 90.9757 206.251 90.3682 200.888 91.8056Z" fill="#FFC701"/>
<path d="M258.273 127.237C257.592 127.029 256.936 126.746 256.317 126.392C255.073 125.8 253.354 124.91 251.161 123.695C245.575 120.58 240.191 117.115 235.04 113.322C228.995 108.877 223.72 104.624 219.883 101.571L215.438 97.9108C214.858 97.4749 214.326 96.9781 213.852 96.429C214.481 96.7677 215.076 97.1646 215.63 97.6145C216.742 98.3998 218.342 99.6002 220.298 101.067C224.209 104.031 229.543 108.225 235.574 112.641C241.604 117.057 247.279 120.732 251.502 123.221C253.606 124.466 255.325 125.459 256.525 126.185C257.14 126.479 257.725 126.831 258.273 127.237Z" fill="#263238"/>
<path d="M206.429 111.841C205.881 112.353 205.291 112.819 204.666 113.234C204.073 113.649 203.377 114.182 202.577 114.819C201.777 115.456 200.858 116.168 199.895 117.012C194.74 121.309 190.246 126.342 186.56 131.95C182.91 137.57 180.081 143.683 178.159 150.102C177.462 152.562 176.899 154.548 176.677 156.03C176.546 156.769 176.343 157.494 176.069 158.193C176.11 157.445 176.215 156.702 176.38 155.971C176.588 154.489 177.062 152.503 177.714 150.043C179.473 143.48 182.243 137.231 185.923 131.52C189.628 125.854 194.215 120.816 199.51 116.597C200.517 115.768 201.451 115.116 202.295 114.478C203.14 113.841 203.851 113.367 204.459 112.997C205.077 112.55 205.737 112.163 206.429 111.841Z" fill="#263238"/>
<g opacity="0.3">
<path d="M205.644 92.7538C192.309 94.0875 177.981 108.536 167.046 117.16C171.491 118.168 178.425 113.811 182.5 111.84C192.724 106.891 200.28 98.7258 213.778 96.4289L217.764 95.5694C215.453 93.4207 208.548 92.576 205.644 92.7538Z" fill="black"/>
</g>
<path d="M213.319 96.3846C213.319 96.3846 212.593 96.5032 211.319 96.7847C209.516 97.202 207.77 97.8338 206.118 98.6667C201.91 100.756 196.502 104.431 190.368 108.225C185.186 111.594 179.657 114.396 173.876 116.582C172.112 117.191 170.311 117.686 168.483 118.064C167.815 118.242 167.129 118.342 166.438 118.361C167.081 118.118 167.739 117.92 168.409 117.768C169.668 117.397 171.491 116.849 173.684 116.005C179.369 113.682 184.826 110.834 189.982 107.499C195.119 104.091 200.431 100.955 205.896 98.1036C207.603 97.2969 209.413 96.7285 211.274 96.4143C211.764 96.3326 212.259 96.288 212.756 96.2809C213.141 96.3402 213.319 96.355 213.319 96.3846Z" fill="#263238"/>
<path d="M261.83 145.405C261.696 145.405 261.341 143.804 260.2 141.389C258.734 138.247 256.571 135.48 253.875 133.3C251.179 131.119 248.021 129.583 244.642 128.808C242.049 128.2 240.375 128.186 240.375 128.052C240.757 127.956 241.152 127.921 241.545 127.949C242.62 127.959 243.691 128.068 244.746 128.275C248.267 128.929 251.57 130.45 254.356 132.701C257.142 134.952 259.324 137.861 260.704 141.167C261.117 142.159 261.444 143.186 261.681 144.234C261.804 144.612 261.854 145.009 261.83 145.405Z" fill="#263238"/>
<path d="M356.183 287.37C354.921 287.108 353.706 286.653 352.583 286.021C351.357 285.611 350.199 285.021 349.145 284.272C350.46 284.313 351.745 284.669 352.894 285.31C354.141 285.72 355.269 286.427 356.183 287.37Z" fill="#263238"/>
<path d="M360.644 280.064C358.213 278.846 355.862 277.475 353.606 275.959C354.992 276.13 356.315 276.639 357.458 277.441C358.716 278.045 359.81 278.945 360.644 280.064Z" fill="#263238"/>
<g opacity="0.3">
<path d="M214.578 165.929C219.201 201.109 224.432 237.889 245.205 266.697C250.687 274.284 258.54 281.738 267.875 281.042C271.609 280.76 275.92 277.53 274.439 274.092C274.439 274.432 270.423 272.402 267.593 270.476C261.385 266.282 255.888 264.548 251.917 258.117C247.946 251.686 244.701 243.017 241.812 236.096C232.744 214.372 221.898 188.068 214.578 165.974" fill="black"/>
</g>
<path d="M194.813 334.33C193.871 332.691 193.328 330.853 193.227 328.966C192.886 327.108 192.978 325.196 193.494 323.379C193.716 323.379 193.627 325.869 193.998 328.877C194.368 331.885 194.961 334.271 194.813 334.33Z" fill="#263238"/>
<path d="M208.8 331.84C207.987 328.562 207.672 325.18 207.866 321.808C208.397 323.416 208.687 325.094 208.726 326.787C209.011 328.458 209.036 330.162 208.8 331.84Z" fill="#263238"/>
<path d="M225.202 329.262C224.563 327.68 224.164 326.012 224.017 324.312C223.615 322.65 223.475 320.935 223.602 319.229C224.237 320.811 224.632 322.48 224.773 324.179C225.165 325.843 225.31 327.556 225.202 329.262Z" fill="#263238"/>
<path d="M239.53 328.388C239.098 326.784 238.761 325.156 238.523 323.512C238.03 321.922 237.634 320.304 237.337 318.667C238.345 320.045 239.005 321.646 239.264 323.334C239.768 324.971 239.86 326.707 239.53 328.388Z" fill="#263238"/>
<path d="M254.081 325.869C253.459 324.554 253.072 323.139 252.94 321.69C252.564 320.295 252.448 318.843 252.599 317.407C253.217 318.719 253.603 320.128 253.74 321.571C254.107 322.973 254.222 324.428 254.081 325.869Z" fill="#263238"/>
<path d="M267.135 325.261C266.912 325.261 266.838 322.831 266.305 319.911C265.771 316.992 265.015 314.68 265.223 314.606C267.036 317.843 267.71 321.595 267.135 325.261Z" fill="#263238"/>
<path d="M246.998 261.777C247.145 262.343 247.215 262.926 247.205 263.511C247.254 264.197 247.254 264.885 247.205 265.571C247.221 266.481 247.181 267.392 247.087 268.297C246.895 270.666 246.489 273.012 245.872 275.307C245.089 278.115 244.032 280.84 242.716 283.442C241.357 286.015 239.754 288.451 237.93 290.718C236.416 292.554 234.74 294.25 232.922 295.786C232.181 296.468 231.44 296.986 230.773 297.475C230.231 297.893 229.662 298.274 229.069 298.616C228.606 298.949 228.11 299.232 227.588 299.461C227.499 299.328 229.647 298.053 232.626 295.386C234.358 293.811 235.963 292.101 237.426 290.273C240.996 285.787 243.635 280.633 245.19 275.114C245.828 272.867 246.283 270.573 246.553 268.253C247.057 264.282 246.85 261.777 246.998 261.777Z" fill="#263238"/>
<g opacity="0.3">
<path d="M233.337 294.704L233.826 294.319C240.477 288.473 244.949 280.542 246.509 271.824C239.96 277.396 235.278 286.406 233.337 294.704Z" fill="black"/>
</g>
<path d="M229.648 319.007C226.586 313.975 225.583 307.956 226.847 302.203C226.861 305.056 227.039 307.906 227.381 310.738C227.983 313.534 228.74 316.295 229.648 319.007Z" fill="#263238"/>
<path d="M253.339 259.125C253.428 259.317 252.199 260.043 250.613 260.74C249.708 261.269 248.695 261.583 247.65 261.659C247.576 261.451 248.791 260.74 250.376 260.029C251.281 259.502 252.295 259.193 253.339 259.125Z" fill="#263238"/>
<path d="M181.774 334.389C180.643 332.938 179.986 331.174 179.892 329.336C179.562 327.527 179.811 325.66 180.603 324.001C180.826 324.001 180.322 326.387 180.603 329.262C180.885 332.137 181.982 334.285 181.774 334.389Z" fill="#263238"/>
<path d="M363.19 370.957L338.98 424.239L359.797 618.42C360.03 620.569 361.048 622.557 362.656 624.002C364.264 625.446 366.349 626.246 368.51 626.247H482.127C484.302 626.247 486.399 625.44 488.012 623.98C489.624 622.521 490.637 620.514 490.854 618.35L509.926 424.83L485.998 370.957H363.19Z" fill="#455A64"/>
<path d="M509.264 429.152H337.403C336.039 429.148 334.733 428.604 333.77 427.638C332.807 426.672 332.266 425.364 332.266 424C332.269 422.638 332.812 421.333 333.775 420.37C334.737 419.408 336.042 418.865 337.403 418.861H509.264C510.628 418.861 511.936 419.402 512.902 420.366C513.868 421.329 514.412 422.636 514.416 424C514.416 424.676 514.283 425.346 514.024 425.971C513.765 426.596 513.385 427.164 512.907 427.643C512.429 428.121 511.861 428.501 511.236 428.76C510.611 429.019 509.941 429.152 509.264 429.152Z" fill="#455A64"/>
<path d="M387.554 370.957L379.475 409.866H472.584L465.898 370.957H387.554Z" fill="#263238"/>
<path d="M385.921 626.247H369.214V635.566H385.921V626.247Z" fill="#455A64"/>
<path d="M480.944 626.247H464.237V635.566H480.944V626.247Z" fill="#455A64"/>
<path d="M472.584 477.62C472.584 477.62 472.584 477.859 472.584 478.31C472.584 478.76 472.584 479.492 472.584 480.393C472.584 482.251 472.584 484.968 472.584 488.487C472.584 495.61 472.584 505.985 472.668 519.077C472.668 545.359 472.767 582.537 472.837 626.247V626.585H472.499H377.49H377.124V626.219C377.124 569.98 377.124 518.19 377.194 477.592V477.31H377.49L446.854 477.465H465.884H470.838H472.499H470.768H465.771L446.685 477.535L377.49 477.69L377.772 477.395C377.772 517.993 377.772 569.783 377.856 626.022L377.49 625.656H472.499L472.161 625.994C472.161 582.354 472.288 545.275 472.33 519.007C472.33 505.887 472.33 495.498 472.415 488.361C472.415 484.799 472.415 482.054 472.415 480.182C472.415 479.267 472.415 478.563 472.415 478.07C472.415 477.578 472.584 477.62 472.584 477.62Z" fill="#263238"/>
<path d="M509.391 428.617C509.391 428.828 471.162 428.983 424.023 428.983C376.885 428.983 338.656 428.828 338.656 428.617C338.656 428.406 376.871 428.251 424.023 428.251C471.176 428.251 509.391 428.42 509.391 428.617Z" fill="#263238"/>
<path d="M509.391 418.862C509.391 419.059 471.162 419.228 424.023 419.228C376.885 419.228 338.656 419.059 338.656 418.862C338.656 418.664 376.871 418.495 424.023 418.495C471.176 418.495 509.391 418.664 509.391 418.862Z" fill="#263238"/>
<path d="M482.127 626.304C482.127 626.501 456.284 626.67 424.417 626.67C392.551 626.67 366.708 626.501 366.708 626.304C366.708 626.106 392.537 625.938 424.417 625.938C456.298 625.938 482.127 626.135 482.127 626.304Z" fill="#263238"/>
<defs>
<linearGradient id="paint0_linear_349_724" x1="608" y1="603" x2="588" y2="635" gradientUnits="userSpaceOnUse">
<stop/>
<stop offset="0.331956"/>
<stop offset="0.398547" stop-color="white"/>
<stop offset="1" stop-color="white"/>
</linearGradient>
<linearGradient id="paint1_linear_349_724" x1="588.7" y1="567.652" x2="588.7" y2="635.995" gradientUnits="userSpaceOnUse">
<stop/>
<stop offset="0.43227"/>
<stop offset="0.455972" stop-color="white"/>
<stop offset="1" stop-color="white"/>
</linearGradient>
<linearGradient id="paint2_linear_349_724" x1="570" y1="601" x2="588.5" y2="635.5" gradientUnits="userSpaceOnUse">
<stop/>
<stop offset="0.453527"/>
<stop offset="0.484765" stop-color="white"/>
<stop offset="1" stop-color="white"/>
</linearGradient>
</defs>
</svg>
