<svg xmlns="http://www.w3.org/2000/svg" xmlns:xlink="http://www.w3.org/1999/xlink" width="500" zoomAndPan="magnify" viewBox="0 0 375 374.999991" height="500" preserveAspectRatio="xMidYMid meet" version="1.0"><defs><clipPath id="35d819ac3a"><path d="M 3.285156 6 L 366 6 L 366 113 L 3.285156 113 Z M 3.285156 6 " clip-rule="nonzero"/></clipPath><clipPath id="0a07f3c2f0"><path d="M 3.285156 93 L 366 93 L 366 332 L 3.285156 332 Z M 3.285156 93 " clip-rule="nonzero"/></clipPath><clipPath id="41944af5f1"><path d="M 3.285156 0 L 371.535156 0 L 371.535156 375 L 3.285156 375 Z M 3.285156 0 " clip-rule="nonzero"/></clipPath></defs><g clip-path="url(#35d819ac3a)"><path fill="#e3861c" d="M 2.964844 112.5 L 2.964844 25 C 2.964844 14.648438 11.363281 6.25 21.714844 6.25 L 110.410156 6.25 C 117.710938 6.25 124.792969 8.8125 130.40625 13.5 L 150.523438 30.25 C 156.140625 34.9375 163.21875 37.5 170.519531 37.5 L 346.714844 37.5 C 357.066406 37.5 365.464844 45.898438 365.464844 56.25 L 365.464844 112.5 L 2.964844 112.5 " fill-opacity="1" fill-rule="nonzero"/></g><path fill="#ffffff" d="M 34.214844 100 L 34.214844 81.25 C 34.214844 70.875 42.589844 62.5 52.964844 62.5 L 315.464844 62.5 C 325.839844 62.5 334.214844 70.875 334.214844 81.25 L 334.214844 100 L 34.214844 100 " fill-opacity="1" fill-rule="nonzero"/><g clip-path="url(#0a07f3c2f0)"><path fill="#fab31f" d="M 346.714844 331.25 L 21.714844 331.25 C 11.363281 331.25 2.964844 322.851562 2.964844 312.5 L 2.964844 112.5 C 2.964844 102.148438 11.363281 93.75 21.714844 93.75 L 346.714844 93.75 C 357.066406 93.75 365.464844 102.148438 365.464844 112.5 L 365.464844 312.5 C 365.464844 322.851562 357.066406 331.25 346.714844 331.25 " fill-opacity="1" fill-rule="nonzero"/></g><path fill="#e73554" d="M 290.464844 162.5 L 290.464844 312.5 C 290.464844 333.179688 273.644531 350 252.964844 350 C 232.285156 350 215.464844 333.179688 215.464844 312.5 C 215.464844 291.820312 232.285156 275 252.964844 275 C 257.335938 275 261.535156 275.757812 265.464844 277.171875 L 265.464844 206.25 C 265.464844 202.5625 262.21875 199.632812 258.53125 200.074219 L 146.03125 212.058594 C 142.90625 212.425781 140.464844 215.113281 140.464844 218.308594 L 140.464844 331.25 C 140.464844 351.929688 123.644531 368.75 102.964844 368.75 C 82.285156 368.75 65.464844 351.929688 65.464844 331.25 C 65.464844 310.570312 82.285156 293.75 102.964844 293.75 C 107.335938 293.75 111.535156 294.507812 115.464844 295.921875 L 115.464844 177.246094 C 115.464844 167.625 122.714844 159.617188 132.214844 158.570312 L 269.714844 143.871094 C 280.773438 142.699219 290.464844 151.367188 290.464844 162.5 " fill-opacity="1" fill-rule="nonzero"/><g clip-path="url(#41944af5f1)"><path fill="#1d1e1f" d="M 346.714844 87.5 L 340.464844 87.5 L 340.464844 81.25 C 340.464844 67.457031 329.257812 56.25 315.464844 56.25 L 52.964844 56.25 C 39.171875 56.25 27.964844 67.457031 27.964844 81.25 L 27.964844 87.5 L 21.714844 87.5 C 17.148438 87.5 12.902344 88.816406 9.214844 90.964844 L 9.214844 25 C 9.214844 18.117188 14.832031 12.5 21.714844 12.5 L 110.410156 12.5 C 116.222656 12.5 121.910156 14.550781 126.402344 18.285156 L 146.519531 35.058594 C 153.257812 40.671875 161.777344 43.75 170.519531 43.75 L 346.714844 43.75 C 353.601562 43.75 359.214844 49.363281 359.214844 56.25 L 359.214844 90.964844 C 355.527344 88.816406 351.28125 87.5 346.714844 87.5 Z M 327.964844 87.5 L 40.464844 87.5 L 40.464844 81.25 C 40.464844 74.363281 46.082031 68.75 52.964844 68.75 L 315.464844 68.75 C 322.351562 68.75 327.964844 74.363281 327.964844 81.25 Z M 252.964844 343.75 C 235.730469 343.75 221.714844 329.734375 221.714844 312.5 C 221.714844 295.261719 235.730469 281.25 252.964844 281.25 C 256.554688 281.25 260.046875 281.859375 263.316406 283.054688 C 265.246094 283.765625 267.371094 283.472656 269.054688 282.300781 C 270.714844 281.128906 271.714844 279.222656 271.714844 277.171875 L 271.714844 206.25 C 271.714844 202.683594 270.175781 199.292969 267.515625 196.921875 C 264.855469 194.554688 261.363281 193.433594 257.847656 193.847656 L 145.273438 205.859375 C 138.976562 206.617188 134.214844 211.960938 134.214844 218.308594 L 134.214844 331.25 C 134.214844 348.484375 120.203125 362.5 102.964844 362.5 C 85.730469 362.5 71.714844 348.484375 71.714844 331.25 C 71.714844 314.011719 85.730469 300 102.964844 300 C 106.554688 300 110.046875 300.609375 113.316406 301.804688 C 115.246094 302.515625 117.371094 302.222656 119.054688 301.050781 C 120.714844 299.878906 121.714844 297.972656 121.714844 295.921875 L 121.714844 177.246094 C 121.714844 170.847656 126.523438 165.476562 132.871094 164.769531 L 270.371094 150.097656 C 274.011719 149.707031 277.402344 150.828125 280.066406 153.222656 C 282.75 155.640625 284.214844 158.910156 284.214844 162.5 L 284.214844 312.5 C 284.214844 329.734375 270.203125 343.75 252.964844 343.75 Z M 146.714844 325 L 146.691406 218.261719 L 259.214844 206.25 L 259.214844 269.214844 C 257.164062 268.894531 255.066406 268.75 252.964844 268.75 C 228.84375 268.75 209.214844 288.378906 209.214844 312.5 C 209.214844 316.84375 209.875 321.019531 211.046875 325 Z M 346.714844 31.25 L 170.519531 31.25 C 164.707031 31.25 159.019531 29.199219 154.527344 25.464844 L 134.410156 8.691406 C 127.671875 3.078125 119.152344 0 110.410156 0 L 21.714844 0 C 7.921875 0 -3.285156 11.207031 -3.285156 25 L -3.285156 143.75 C -3.285156 147.191406 -0.476562 150 2.964844 150 C 6.40625 150 9.214844 147.191406 9.214844 143.75 L 9.214844 112.5 C 9.214844 105.613281 14.832031 100 21.714844 100 L 346.714844 100 C 353.601562 100 359.214844 105.613281 359.214844 112.5 L 359.214844 312.5 C 359.214844 319.382812 353.601562 325 346.714844 325 L 294.882812 325 C 296.054688 321.019531 296.714844 316.84375 296.714844 312.5 L 296.714844 162.5 C 296.714844 155.417969 293.6875 148.65625 288.414062 143.921875 C 283.140625 139.183594 276.0625 136.890625 269.054688 137.671875 L 131.53125 152.34375 C 118.808594 153.785156 109.214844 164.476562 109.214844 177.246094 L 109.214844 287.964844 C 107.164062 287.644531 105.066406 287.5 102.964844 287.5 C 80.96875 287.5 62.78125 303.832031 59.726562 325 L 21.714844 325 C 14.832031 325 9.214844 319.382812 9.214844 312.5 L 9.214844 168.75 C 9.214844 165.308594 6.40625 162.5 2.964844 162.5 C -0.476562 162.5 -3.285156 165.308594 -3.285156 168.75 L -3.285156 312.5 C -3.285156 326.292969 7.921875 337.5 21.714844 337.5 L 59.726562 337.5 C 62.78125 358.667969 80.96875 375 102.964844 375 C 124.960938 375 143.152344 358.667969 146.203125 337.5 L 217.125 337.5 C 225.035156 348.828125 238.144531 356.25 252.964844 356.25 C 267.785156 356.25 280.894531 348.828125 288.804688 337.5 L 346.714844 337.5 C 360.507812 337.5 371.714844 326.292969 371.714844 312.5 L 371.714844 56.25 C 371.714844 42.457031 360.507812 31.25 346.714844 31.25 " fill-opacity="1" fill-rule="nonzero"/></g></svg>