<svg width="8" height="15" viewBox="0 0 8 15" fill="none" xmlns="http://www.w3.org/2000/svg">
<path d="M1.92559 14.5528C1.69194 14.5533 1.4655 14.4719 1.28559 14.3228C1.18433 14.2388 1.10063 14.1357 1.03928 14.0194C0.977924 13.9031 0.940127 13.7757 0.928052 13.6448C0.915976 13.5138 0.929858 13.3817 0.968902 13.2561C1.00795 13.1305 1.07139 13.0138 1.15559 12.9128L5.63559 7.5528L1.31559 2.1828C1.23252 2.08051 1.17049 1.96281 1.13306 1.83647C1.09563 1.71013 1.08353 1.57764 1.09747 1.44661C1.11141 1.31559 1.15111 1.1886 1.21428 1.07297C1.27746 0.957331 1.36286 0.85532 1.46559 0.772797C1.56905 0.68176 1.69022 0.613093 1.82148 0.571104C1.95274 0.529115 2.09127 0.514711 2.22836 0.528796C2.36546 0.542881 2.49816 0.585151 2.61814 0.652952C2.73812 0.720754 2.84279 0.812624 2.92559 0.922797L7.75559 6.9228C7.90267 7.10173 7.98308 7.32617 7.98308 7.5578C7.98308 7.78942 7.90267 8.01386 7.75559 8.1928L2.75559 14.1928C2.65527 14.3138 2.52784 14.4095 2.38363 14.472C2.23942 14.5346 2.08249 14.5622 1.92559 14.5528Z" fill="#333333"/>
</svg>
