<svg width="9" height="13" viewBox="0 0 9 13" fill="none" xmlns="http://www.w3.org/2000/svg">
<path d="M9 1.28613V0.188477H0.21875V1.28613H3.2373C3.84305 1.28791 4.42692 1.51274 4.87742 1.91768C5.32792 2.32263 5.61349 2.87932 5.67959 3.48145H0.21875V4.5791H5.67959C5.61349 5.18123 5.32792 5.73792 4.87742 6.14286C4.42692 6.54781 3.84305 6.77264 3.2373 6.77441H0.21875V8.06142L5.49683 12.8115L6.23116 11.996L1.649 7.87207H3.2373C4.13524 7.87077 4.9997 7.5311 5.65833 6.92078C6.31696 6.31046 6.72139 5.47434 6.79097 4.5791H9V3.48145H6.79097C6.72799 2.65735 6.37961 1.881 5.80582 1.28613H9Z" fill="#4F4F4F"/>
</svg>
