
<svg aria-hidden="true" style="position: absolute; width: 0; height: 0; overflow: hidden;" version="1.1" xmlns="http://www.w3.org/2000/svg" xmlns:xlink="http://www.w3.org/1999/xlink">
<defs>
<symbol id="icon-inr" viewBox="0 0 22 32">
<path fill="#4f4f4f" style="fill: var(--color1, #4f4f4f)" d="M22.154 3.166v-2.702h-21.615v2.702h7.43c1.491 0.004 2.928 0.558 4.037 1.555s1.812 2.367 1.975 3.849h-13.442v2.702h13.442c-0.163 1.482-0.866 2.852-1.975 3.849s-2.546 1.55-4.037 1.555h-7.43v3.168l12.992 11.693 1.808-2.007-11.279-10.151h3.91c2.21-0.003 4.338-0.839 5.959-2.342s2.617-3.56 2.788-5.764h5.438v-2.702h-5.438c-0.155-2.029-1.013-3.94-2.425-5.404h7.863z"></path>
</symbol>
<symbol id="icon-arrow-right" viewBox="0 0 17 32">
<path d="M4.108 31.046c-0.498 0.001-0.982-0.173-1.365-0.491-0.216-0.179-0.395-0.399-0.525-0.647s-0.212-0.52-0.237-0.799c-0.026-0.279 0.004-0.561 0.087-0.829s0.219-0.517 0.398-0.732l9.557-11.435-9.216-11.456c-0.177-0.218-0.31-0.469-0.389-0.739s-0.106-0.552-0.076-0.832c0.030-0.28 0.114-0.55 0.249-0.797s0.317-0.464 0.536-0.64c0.221-0.194 0.479-0.341 0.759-0.43s0.576-0.12 0.868-0.090c0.292 0.030 0.576 0.12 0.832 0.265s0.479 0.341 0.656 0.576l10.304 12.8c0.314 0.382 0.485 0.861 0.485 1.355s-0.172 0.973-0.485 1.355l-10.667 12.8c-0.214 0.258-0.486 0.462-0.793 0.596s-0.642 0.192-0.977 0.172z"></path>
</symbol>
<symbol id="icon-user-group" viewBox="0 0 32 32">
<path d="M11.724 11.882c0.849-1.027 2.134-1.684 3.572-1.684s2.723 0.657 3.572 1.684c0.559 0.678 0.914 1.5 1.023 2.372s-0.032 1.756-0.406 2.551c-0.375 0.794-0.967 1.466-1.709 1.936s-1.602 0.72-2.48 0.72-1.739-0.25-2.48-0.72c-0.742-0.47-1.334-1.142-1.709-1.936s-0.515-1.679-0.406-2.551c0.109-0.871 0.464-1.694 1.023-2.372h0.002z"></path>
<path d="M21.612 14.83c0-1.064-0.263-2.068-0.728-2.947h7.043c0.67 0 1.313 0.266 1.786 0.74s0.74 1.116 0.74 1.786v0.842c0 2.673-2.031 5.41-5.583 6.373-0.365-0.656-0.899-1.202-1.546-1.582s-1.384-0.581-2.134-0.58h-1.6c0.638-0.591 1.148-1.307 1.495-2.104s0.527-1.658 0.526-2.527z"></path>
<path d="M21.191 21.146c0.332-0.001 0.661 0.064 0.968 0.19s0.586 0.313 0.821 0.547c0.235 0.235 0.421 0.514 0.548 0.821s0.191 0.636 0.19 0.968v0.842c0 3.32-3.133 6.737-8.421 6.737s-8.421-3.417-8.421-6.737v-0.842c-0.001-0.332 0.064-0.661 0.191-0.968s0.313-0.586 0.547-0.821c0.235-0.235 0.514-0.421 0.821-0.547s0.636-0.191 0.968-0.19h11.789z"></path>
<path d="M0.139 15.251c0 2.673 2.031 5.41 5.583 6.373 0.365-0.656 0.899-1.202 1.546-1.582s1.384-0.581 2.134-0.58h1.6c-0.638-0.591-1.148-1.307-1.495-2.104s-0.527-1.658-0.526-2.527c0-1.064 0.263-2.068 0.729-2.947h-7.045c-0.67 0-1.313 0.266-1.786 0.74s-0.74 1.116-0.74 1.786v0.842z"></path>
<path d="M13.191 5.567c0-1.228-0.488-2.406-1.357-3.275s-2.047-1.357-3.275-1.357c-1.228 0-2.406 0.488-3.275 1.357s-1.357 2.047-1.357 3.275c0 1.228 0.488 2.406 1.357 3.275s2.047 1.357 3.275 1.357c1.228 0 2.406-0.488 3.275-1.357s1.357-2.047 1.357-3.275z"></path>
<path d="M26.665 5.567c0-1.228-0.488-2.406-1.357-3.275s-2.047-1.357-3.275-1.357c-1.228 0-2.406 0.488-3.275 1.357s-1.356 2.047-1.356 3.275 0.488 2.406 1.356 3.275c0.869 0.869 2.047 1.357 3.275 1.357s2.406-0.488 3.275-1.357 1.357-2.047 1.357-3.275z"></path>
</symbol>
<symbol id="icon-atom" viewBox="0 0 34 32">
<path stroke-linejoin="round" stroke-linecap="round" stroke-miterlimit="4" stroke-width="2.5263" d="M3.809 18.474c-1.497-0.783-2.365-1.715-2.365-2.712 0-2.791 6.787-5.053 15.158-5.053s15.158 2.262 15.158 5.053c0 1.203-1.263 2.307-3.368 3.176"></path>
<path stroke-linejoin="round" stroke-linecap="round" stroke-miterlimit="4" stroke-width="2.5263" d="M16.602 14.095l0.017-0.019"></path>
<path stroke-linejoin="round" stroke-linecap="round" stroke-miterlimit="4" stroke-width="2.5263" d="M24.826 5.657c-0.008-1.723-0.443-2.942-1.342-3.402-2.488-1.265-7.584 3.756-11.385 11.213-3.8 7.459-4.866 14.533-2.378 15.8 0.888 0.453 2.109 0.103 3.486-0.874"></path>
<path stroke-linejoin="round" stroke-linecap="round" stroke-miterlimit="4" stroke-width="2.5263" d="M12.56 2.713c-1.112-0.65-2.093-0.837-2.84-0.456-2.488 1.267-1.421 8.34 2.38 15.798 3.8 7.461 8.896 12.48 11.382 11.213 2.211-1.127 1.615-6.84-1.213-13.334"></path>
</symbol>
<symbol id="icon-music" viewBox="0 0 26 32">
<path d="M22.781 10.169v11.051c-0.833-0.481-1.802-0.674-2.755-0.548s-1.839 0.562-2.52 1.242c-0.68 0.68-1.117 1.566-1.243 2.52s0.067 1.922 0.548 2.755c0.481 0.833 1.223 1.484 2.112 1.852s1.874 0.433 2.803 0.184c0.929-0.249 1.75-0.798 2.336-1.561s0.903-1.698 0.903-2.66v-22.011c0-0.28-0.067-0.557-0.196-0.806s-0.316-0.463-0.545-0.625c-0.229-0.162-0.494-0.266-0.772-0.303s-0.561-0.008-0.825 0.087l-13.984 4.995c-0.339 0.122-0.632 0.345-0.839 0.639s-0.319 0.646-0.319 1.006v15.417c-0.833-0.481-1.801-0.674-2.755-0.548s-1.839 0.562-2.519 1.242c-0.68 0.68-1.117 1.566-1.243 2.519s0.067 1.922 0.547 2.755c0.481 0.833 1.223 1.484 2.111 1.853s1.874 0.433 2.803 0.185 1.75-0.797 2.336-1.56c0.586-0.763 0.904-1.698 0.904-2.66v-12.338l13.11-4.682z"></path>
</symbol>
<symbol id="icon-attach" viewBox="0 0 34 32">
<path d="M24.028 0.251c1.839-0 3.638 0.536 5.177 1.544s2.75 2.442 3.484 4.128c0.735 1.686 0.962 3.55 0.653 5.363s-1.14 3.496-2.392 4.844l-0.299 0.305-13.825 13.821-0.088 0.071c-1.119 0.965-2.562 1.471-4.039 1.418s-2.879-0.664-3.925-1.708-1.659-2.445-1.716-3.922c-0.057-1.477 0.446-2.921 1.409-4.042l0.235-0.258 0.024-0.017 11.479-11.501c0.295-0.296 0.695-0.462 1.113-0.462s0.818 0.165 1.114 0.46c0.296 0.295 0.462 0.695 0.462 1.113s-0.165 0.819-0.46 1.114l-11.498 11.514c-0.463 0.495-0.724 1.145-0.732 1.823s0.24 1.334 0.692 1.838c0.453 0.505 1.078 0.822 1.752 0.888s1.35-0.122 1.892-0.529l0.192-0.158 0.002 0.002 13.953-13.959c1.103-1.212 1.689-2.805 1.636-4.443s-0.742-3.19-1.921-4.327c-1.179-1.138-2.754-1.772-4.392-1.767s-3.21 0.647-4.382 1.792l-0.244 0.252-0.028 0.019-14.685 14.692c-0.146 0.146-0.32 0.262-0.511 0.341s-0.396 0.12-0.603 0.12-0.412-0.041-0.603-0.12c-0.191-0.079-0.365-0.195-0.511-0.342s-0.262-0.32-0.341-0.511-0.12-0.396-0.12-0.603c0-0.418 0.166-0.818 0.462-1.113l14.729-14.732c0.882-0.932 1.945-1.673 3.124-2.18s2.449-0.767 3.732-0.765z"></path>
</symbol>
<symbol id="icon-Vector" viewBox="0 0 36 32">
<path d="M30.649 4.874h-16.24l-2.892-2.892c-0.157-0.158-0.344-0.282-0.549-0.368s-0.426-0.129-0.648-0.129h-6.776c-1.869 0-3.388 1.52-3.388 3.388v23.718c0 1.869 1.52 3.388 3.388 3.388h27.106c1.869 0 3.388-1.52 3.388-3.388v-20.329c0-1.869-1.52-3.388-3.388-3.388z"></path>
</symbol>
<symbol id="icon-chat" viewBox="0 0 36 32">
<path d="M6.349 31.533c-0.243 0.212-0.542 0.349-0.861 0.397s-0.645 0.004-0.939-0.127c-0.295-0.131-0.546-0.343-0.724-0.612s-0.276-0.582-0.282-0.905v-3.8c-0.899 0-1.76-0.357-2.396-0.992s-0.992-1.497-0.992-2.396v-11.859c0-0.899 0.357-1.76 0.992-2.396s1.497-0.992 2.396-0.992h18.635c0.899 0 1.76 0.357 2.396 0.992s0.992 1.497 0.992 2.396v11.859c0 0.899-0.357 1.761-0.992 2.396s-1.497 0.992-2.396 0.992h-8.466l-7.364 5.047zM27.261 18.045c-0.005 0.208-0.005 0.417 0 0.625v-0.627c0.008-0.181 0.010-2.451 0.007-6.809-0.001-1.347-0.537-2.638-1.49-3.591s-2.245-1.487-3.592-1.487h-13.56v-1.694c0-0.899 0.357-1.76 0.992-2.396s1.497-0.992 2.396-0.992h18.635c0.899 0 1.76 0.357 2.396 0.992s0.992 1.497 0.992 2.396v11.859c0 0.899-0.357 1.76-0.992 2.396s-1.497 0.992-2.396 0.992v3.8c-0.006 0.322-0.104 0.636-0.282 0.905s-0.429 0.481-0.724 0.612c-0.295 0.131-0.62 0.175-0.939 0.127s-0.617-0.186-0.86-0.397l-0.583-0.4v-6.312z"></path>
</symbol>
<symbol id="icon-folder-plus" viewBox="0 0 38 32">
<path d="M32.519 6.597h-13.008l-4.887-5.909c-0.173-0.213-0.391-0.385-0.638-0.504s-0.518-0.181-0.793-0.183h-8.548c-1.214-0.015-2.385 0.452-3.255 1.298s-1.371 2.003-1.39 3.217v22.559c0.020 1.214 0.519 2.371 1.39 3.217s2.041 1.313 3.255 1.298h27.874c1.214 0.015 2.385-0.452 3.255-1.298s1.371-2.003 1.39-3.217v-15.962c-0.020-1.214-0.52-2.371-1.39-3.217s-2.041-1.313-3.255-1.298zM22.299 21.37h-1.858v1.858c0 0.493-0.196 0.965-0.544 1.314s-0.821 0.544-1.314 0.544c-0.493 0-0.965-0.196-1.314-0.544s-0.544-0.821-0.544-1.314v-1.858h-1.858c-0.493 0-0.966-0.196-1.314-0.544s-0.544-0.821-0.544-1.314c0-0.493 0.196-0.965 0.544-1.314s0.821-0.544 1.314-0.544h1.858v-1.858c0-0.493 0.196-0.966 0.544-1.314s0.821-0.544 1.314-0.544c0.493 0 0.965 0.196 1.314 0.544s0.544 0.821 0.544 1.314v1.858h1.858c0.493 0 0.965 0.196 1.314 0.544s0.544 0.821 0.544 1.314c0 0.493-0.196 0.965-0.544 1.314s-0.821 0.544-1.314 0.544z"></path>
</symbol>
<symbol id="icon-folder" viewBox="0 0 34 32">
<path d="M30.24 4.195h-16.105l-2.868-2.868c-0.156-0.156-0.341-0.28-0.545-0.365s-0.422-0.128-0.643-0.128h-6.72c-1.853 0-3.36 1.507-3.36 3.36v23.52c0 1.853 1.507 3.36 3.36 3.36h26.88c1.853 0 3.36-1.507 3.36-3.36v-20.16c0-1.853-1.507-3.36-3.36-3.36z"></path>
</symbol>
<symbol id="icon-cross" viewBox="0 0 32 32">
<path d="M19.355 16.737l10.585-10.56c0.463-0.464 0.724-1.092 0.724-1.748s-0.26-1.284-0.724-1.748c-0.463-0.464-1.092-0.724-1.748-0.724s-1.284 0.26-1.748 0.724l-10.56 10.585-10.56-10.585c-0.463-0.464-1.092-0.724-1.748-0.724s-1.284 0.26-1.748 0.724c-0.464 0.463-0.724 1.092-0.724 1.748s0.26 1.284 0.724 1.748l10.585 10.56-10.585 10.56c-0.231 0.229-0.414 0.501-0.539 0.801s-0.189 0.622-0.189 0.947c0 0.325 0.064 0.647 0.189 0.946s0.308 0.572 0.539 0.801c0.229 0.231 0.501 0.414 0.801 0.539s0.622 0.19 0.947 0.19 0.647-0.064 0.947-0.19c0.3-0.125 0.572-0.308 0.801-0.539l10.56-10.585 10.56 10.585c0.229 0.231 0.501 0.414 0.801 0.539s0.622 0.19 0.947 0.19 0.647-0.064 0.946-0.19c0.3-0.125 0.572-0.308 0.801-0.539 0.231-0.229 0.414-0.501 0.539-0.801s0.189-0.622 0.189-0.946c0-0.325-0.064-0.647-0.189-0.947s-0.308-0.572-0.539-0.801l-10.585-10.56z"></path>
</symbol>
<symbol id="icon-caret-down" viewBox="0 0 48 32">
<path d="M46.006 6.686l-18.91 23.693c-1.794 2.167-4.559 2.167-6.278 0l-18.91-23.693c-1.794-2.242-0.897-3.961 1.869-3.961h40.361c2.84 0 3.662 1.719 1.868 3.961z"></path>
</symbol>
<symbol id="icon-checkmark" viewBox="0 0 32 32">
<path d="M27 4l-15 15-7-7-5 5 12 12 20-20z"></path>
</symbol>
</defs>
</svg>
