<svg width="20" height="20" viewBox="0 0 20 20" fill="none" xmlns="http://www.w3.org/2000/svg">
<path id="Vector" d="M18.4471 18.448C17.4502 19.4419 16.0999 20 14.6921 20C13.2844 20 11.9341 19.4419 10.9371 18.448L4.91897 12.4283C4.60935 12.1206 4.36391 11.7544 4.1969 11.3511C4.02988 10.9478 3.94461 10.5153 3.94604 10.0788C3.94603 9.64304 4.03193 9.21154 4.19881 8.80899C4.36568 8.40644 4.61027 8.04073 4.91858 7.73278C5.22689 7.42483 5.59288 7.18067 5.99562 7.01427C6.39835 6.84787 6.82994 6.76249 7.26569 6.76301C8.11519 6.76301 8.96335 7.08424 9.61109 7.732L12.4277 10.5474C12.9247 11.0456 13.2038 11.7206 13.2038 12.4243C13.2038 13.128 12.9247 13.803 12.4277 14.3012L7.73424 9.60892C7.60962 9.4843 7.44061 9.41428 7.26437 9.41428C7.08813 9.41428 6.91911 9.4843 6.79449 9.60892C6.66987 9.73354 6.59986 9.90257 6.59986 10.0788C6.59986 10.2551 6.66987 10.4241 6.79449 10.5487L12.8139 16.571C13.3129 17.0676 13.9882 17.3464 14.6921 17.3464C15.396 17.3464 16.0713 17.0676 16.5703 16.571C17.067 16.0727 17.3459 15.3977 17.3459 14.6941C17.3459 13.9905 17.067 13.3156 16.5703 12.8172L10.5482 6.79487L7.1834 3.42996C6.68506 2.93324 6.01015 2.65432 5.30655 2.65432C4.60295 2.65432 3.92804 2.93324 3.4297 3.42996C2.93235 3.92797 2.653 4.60303 2.653 5.30687C2.653 6.01071 2.93235 6.68578 3.4297 7.18379L3.5558 7.31122C2.95058 8.1271 2.62389 9.11605 2.62401 10.1319L1.55285 9.06071C0.558482 8.06451 0 6.71445 0 5.30687C0 3.8993 0.558482 2.54924 1.55285 1.55304C2.58685 0.519007 3.94736 0 5.30655 0C6.66574 0 8.02626 0.519007 9.06025 1.55304L18.4471 10.9403C19.4415 11.9365 20 13.2865 20 14.6941C20 16.1017 19.4415 17.4518 18.4471 18.448Z" fill="#D1D5DB"/>
</svg>
