<svg width="20" height="20" viewBox="0 0 20 20" fill="none" xmlns="http://www.w3.org/2000/svg">
<path d="M7.64085 7.22195C8.20085 6.54418 9.04863 6.11085 9.99752 6.11085C10.9464 6.11085 11.7942 6.54418 12.3542 7.22195C12.7229 7.66895 12.9569 8.21158 13.0288 8.78653C13.1008 9.36147 13.0079 9.94504 12.7608 10.4691C12.5136 10.9933 12.1226 11.4363 11.6333 11.7466C11.1439 12.0569 10.5764 12.2216 9.99696 12.2216C9.41752 12.2216 8.85002 12.0569 8.36067 11.7466C7.87131 11.4363 7.48028 10.9933 7.23318 10.4691C6.98607 9.94504 6.89309 9.36147 6.96508 8.78653C7.03707 8.21158 7.27105 7.66895 7.63974 7.22195H7.64085Z" fill="white"/>
<path d="M14.1654 9.16659C14.1654 8.46438 13.992 7.80216 13.6854 7.22217H18.332C18.7741 7.22217 19.198 7.39776 19.5105 7.71032C19.8231 8.02288 19.9987 8.4468 19.9987 8.88882V9.44437C19.9987 11.2077 18.6587 13.0132 16.3154 13.6488C16.0746 13.2162 15.7225 12.8558 15.2957 12.605C14.8688 12.3542 14.3827 12.222 13.8876 12.2221H12.832C13.2532 11.8324 13.5891 11.3598 13.8185 10.8339C14.048 10.308 14.1661 9.74035 14.1654 9.16659Z" fill="white"/>
<path d="M13.8898 13.334C14.1088 13.3334 14.3258 13.3761 14.5283 13.4596C14.7307 13.5432 14.9147 13.6659 15.0696 13.8208C15.2245 13.9757 15.3472 14.1597 15.4308 14.3621C15.5143 14.5646 15.557 14.7816 15.5564 15.0006V15.5562C15.5564 17.7461 13.4898 20.0006 10.0009 20.0006C6.51199 20.0006 4.44532 17.7461 4.44532 15.5562V15.0006C4.44473 14.7816 4.48744 14.5646 4.57099 14.3621C4.65454 14.1597 4.77728 13.9757 4.93217 13.8208C5.08705 13.6659 5.27101 13.5432 5.47349 13.4596C5.67596 13.3761 5.89295 13.3334 6.11199 13.334H13.8898Z" fill="white"/>
<path d="M0 9.44437C0 11.2077 1.34 13.0132 3.68333 13.6488C3.92415 13.2162 4.2762 12.8558 4.70304 12.605C5.12989 12.3542 5.61602 12.222 6.11111 12.2221H7.16667C6.74552 11.8324 6.40963 11.3598 6.18016 10.8339C5.95068 10.308 5.83259 9.74035 5.83333 9.16659C5.83333 8.46438 6.00667 7.80216 6.31445 7.22217H1.66667C1.22464 7.22217 0.800716 7.39776 0.488155 7.71032C0.175595 8.02288 0 8.4468 0 8.88882V9.44437Z" fill="white"/>
<path d="M8.61111 3.05552C8.61111 2.24515 8.28919 1.46796 7.71616 0.894941C7.14313 0.32192 6.36594 0 5.55556 0C4.74517 0 3.96798 0.32192 3.39495 0.894941C2.82192 1.46796 2.5 2.24515 2.5 3.05552C2.5 3.8659 2.82192 4.64308 3.39495 5.2161C3.96798 5.78912 4.74517 6.11104 5.55556 6.11104C6.36594 6.11104 7.14313 5.78912 7.71616 5.2161C8.28919 4.64308 8.61111 3.8659 8.61111 3.05552Z" fill="white"/>
<path d="M17.4978 3.05552C17.4978 2.24515 17.1759 1.46796 16.6029 0.894941C16.0299 0.32192 15.2527 0 14.4423 0C13.6319 0 12.8547 0.32192 12.2817 0.894941C11.7086 1.46796 11.3867 2.24515 11.3867 3.05552C11.3867 3.8659 11.7086 4.64308 12.2817 5.2161C12.8547 5.78912 13.6319 6.11104 14.4423 6.11104C15.2527 6.11104 16.0299 5.78912 16.6029 5.2161C17.1759 4.64308 17.4978 3.8659 17.4978 3.05552Z" fill="white"/>
</svg>
