<svg width="22" height="18" viewBox="0 0 22 18" fill="none" xmlns="http://www.w3.org/2000/svg">
<path d="M3.93633 17.7576C3.78185 17.8809 3.59225 17.9612 3.38979 17.9891C3.18733 18.0169 2.98042 17.9912 2.79335 17.9149C2.60627 17.8385 2.4468 17.7148 2.33365 17.5582C2.22051 17.4016 2.15838 17.2186 2.15457 17.0307V14.8153C1.58386 14.8153 1.03651 14.6072 0.632958 14.2367C0.229401 13.8663 0.00268555 13.3638 0.00268555 12.8399V5.92612C0.00268555 5.40222 0.229401 4.89978 0.632958 4.52932C1.03651 4.15887 1.58386 3.95075 2.15457 3.95075H13.9899C14.5607 3.95075 15.108 4.15887 15.5115 4.52932C15.9151 4.89978 16.1418 5.40222 16.1418 5.92612V12.8399C16.1418 13.3638 15.9151 13.8663 15.5115 14.2367C15.108 14.6072 14.5607 14.8153 13.9899 14.8153H8.61345L3.93633 17.7576ZM17.2178 9.89366C17.2143 10.0151 17.2143 10.1367 17.2178 10.2581V9.89268C17.2231 9.78699 17.2242 8.46349 17.2221 5.92316C17.2212 5.13782 16.8808 4.38492 16.2755 3.82987C15.6703 3.27483 14.8498 2.96306 13.9942 2.96306H5.3824V1.97537C5.3824 1.45147 5.60911 0.949028 6.01267 0.578574C6.41623 0.208119 6.96357 0 7.53428 0H19.3697C19.9404 0 20.4877 0.208119 20.8913 0.578574C21.2948 0.949028 21.5215 1.45147 21.5215 1.97537V8.88919C21.5215 9.41309 21.2948 9.91553 20.8913 10.286C20.4877 10.6564 19.9404 10.8646 19.3697 10.8646V13.0799C19.3658 13.2678 19.3037 13.4508 19.1906 13.6075C19.0774 13.7641 18.9179 13.8878 18.7309 13.9641C18.5438 14.0404 18.3369 14.0662 18.1344 14.0383C17.932 14.0105 17.7424 13.9302 17.5879 13.8069L17.2178 13.5738V9.89366Z" fill="#333333"/>
</svg>
