<svg width="22" height="16" viewBox="0 0 22 16" fill="none" xmlns="http://www.w3.org/2000/svg">
<path d="M21.3359 4V14C21.3359 15.1 20.4632 16 19.3966 16H3.88141C3.34808 16 2.91171 15.55 2.91171 15C2.91171 14.45 3.34808 14 3.88141 14H19.3966V4C19.3966 3.45 19.8329 3 20.3663 3C20.8996 3 21.3359 3.45 21.3359 4ZM2.91171 12C1.30202 12 0.00262451 10.66 0.00262451 9V3C0.00262451 1.34 1.30202 0 2.91171 0H14.5481C16.1578 0 17.4572 1.34 17.4572 3V10C17.4572 11.1 16.5844 12 15.5178 12H2.91171ZM5.8208 6C5.8208 7.66 7.1202 9 8.72989 9C10.3396 9 11.639 7.66 11.639 6C11.639 4.34 10.3396 3 8.72989 3C7.1202 3 5.8208 4.34 5.8208 6Z" fill="#333333"/>
</svg>
