<svg width="30" height="25" viewBox="0 0 30 25" fill="none" xmlns="http://www.w3.org/2000/svg">
<path d="M25.4058 5.15401H15.2435L11.4253 0.537421C11.2902 0.370885 11.1199 0.236345 10.9267 0.143469C10.7334 0.050593 10.5219 0.0016886 10.3075 0.000270543H3.62939C2.68083 -0.0113746 1.7663 0.35333 1.08606 1.01453C0.405814 1.67572 0.0152911 2.57953 0 3.52804V21.1524C0.0152911 22.1009 0.405814 23.0047 1.08606 23.6659C1.7663 24.3271 2.68083 24.6918 3.62939 24.6802H25.4058C26.3543 24.6918 27.2689 24.3271 27.9491 23.6659C28.6293 23.0047 29.0199 22.1009 29.0352 21.1524V8.68178C29.0199 7.73327 28.6293 6.82946 27.9491 6.16827C27.2689 5.50707 26.3543 5.14237 25.4058 5.15401ZM17.4211 16.6955H15.9693V18.1472C15.9693 18.5323 15.8164 18.9015 15.5441 19.1738C15.2719 19.4461 14.9026 19.599 14.5176 19.599C14.1325 19.599 13.7633 19.4461 13.491 19.1738C13.2188 18.9015 13.0658 18.5323 13.0658 18.1472V16.6955H11.6141C11.229 16.6955 10.8598 16.5425 10.5875 16.2703C10.3153 15.998 10.1623 15.6288 10.1623 15.2437C10.1623 14.8587 10.3153 14.4894 10.5875 14.2172C10.8598 13.9449 11.229 13.792 11.6141 13.792H13.0658V12.3402C13.0658 11.9552 13.2188 11.5859 13.491 11.3137C13.7633 11.0414 14.1325 10.8885 14.5176 10.8885C14.9026 10.8885 15.2719 11.0414 15.5441 11.3137C15.8164 11.5859 15.9693 11.9552 15.9693 12.3402V13.792H17.4211C17.8061 13.792 18.1754 13.9449 18.4476 14.2172C18.7199 14.4894 18.8729 14.8587 18.8729 15.2437C18.8729 15.6288 18.7199 15.998 18.4476 16.2703C18.1754 16.5425 17.8061 16.6955 17.4211 16.6955Z" fill="#333333"/>
</svg>
