<svg width="20" height="14" viewBox="0 0 20 14" fill="none" xmlns="http://www.w3.org/2000/svg">
<path d="M18.5838 2.27029H17.7974V2.22574C17.7525 0.779088 16.9663 0 15.5285 0H1.57754C0.926123 0 0.544053 0.267041 0.364491 0.489662C0.0723942 0.823459 -0.0623895 1.31314 0.027576 1.89192L0.881297 12.1748C0.881297 13.1764 1.71247 14 2.72353 14H17.7977C18.5841 14 19.2131 13.3768 19.2131 12.5977L19.9995 3.71706C20.0215 2.91595 19.37 2.27029 18.5838 2.27029ZM3.41973 3.87282C3.41973 3.87282 2.36386 3.82827 2.38625 4.69631L2.67834 11.6851C2.67834 11.6851 2.67834 12.2416 2.22908 12.2861C1.82478 12.3307 1.73484 11.9078 1.71242 11.7519V11.6851L0.903666 1.80286V1.78066C0.881257 1.55802 0.881257 1.24644 1.03843 1.04617C1.15079 0.912648 1.35294 0.845887 1.62249 0.845887H15.5734C16.5619 0.845887 16.9662 1.24644 16.9888 2.24814H10.6985C10.6985 2.24814 10.2043 2.24814 9.88975 2.7378C9.53027 3.31645 9.19337 3.87289 9.19337 3.87289L3.41973 3.87282ZM13.8212 12.3084C11.642 12.3084 9.84476 10.5501 9.84476 8.36877C9.84476 6.20981 11.6194 4.42918 13.8212 4.42918C16.0003 4.42918 17.7976 6.18743 17.7976 8.36877C17.7751 10.55 16.0003 12.3084 13.8212 12.3084Z" fill="#FFC701"/>
<path d="M14.9944 9.3391V7.53298C14.9943 7.52327 14.9911 7.51386 14.9853 7.50613C14.9795 7.49841 14.9713 7.4928 14.9621 7.49014C14.4612 7.3513 13.6807 7.14063 13.1798 7.00189C13.1734 6.99984 13.1666 6.99945 13.16 7.00075C13.1534 7.00205 13.1472 7.005 13.1421 7.00934C13.1315 7.01634 13.124 7.02787 13.124 7.04474C13.1255 7.6273 13.127 8.20967 13.1284 8.79223C12.8644 8.5998 12.3761 8.64876 12.2551 8.97874C12.179 9.18665 12.2322 9.42592 12.3941 9.57284C12.5665 9.72938 12.8388 9.72637 13.0458 9.65759C13.2403 9.59286 13.3978 9.4202 13.4277 9.2148C13.4427 9.11156 13.4309 8.99975 13.4309 8.89606V7.98292C13.7573 8.07453 14.363 8.23797 14.6895 8.33001C14.69 8.63969 14.6912 8.96311 14.6918 9.2363C14.5229 9.1089 14.2874 9.10303 14.089 9.17102C13.8309 9.25923 13.7511 9.51536 13.8029 9.76922C13.925 10.3663 14.9113 10.2086 14.9911 9.66011C15.0061 9.55618 14.9944 9.44342 14.9944 9.3391Z" fill="#FFC701"/>
</svg>
