<svg width="22" height="20" viewBox="0 0 22 20" fill="none" xmlns="http://www.w3.org/2000/svg">
<path d="M11.7116 0V2.02303C16.4058 2.56385 19.7314 6.55984 19.154 10.9564C18.6621 14.6019 15.6039 17.4962 11.7116 17.9269V19.9299C17.5928 19.3791 21.87 14.4917 21.2819 8.98348C20.8007 4.22634 16.7694 0.470706 11.7116 0ZM9.57295 0.030045C7.48779 0.22033 5.49888 0.971457 3.87353 2.23335L5.40264 3.71557C6.60027 2.81422 8.04383 2.23335 9.57295 2.03305V0.030045ZM2.3658 3.64547C1.02879 5.16509 0.206009 7.02362 0.00262451 8.98348H2.14124C2.34441 7.56134 2.94323 6.20931 3.89491 5.07762L2.3658 3.64547ZM14.3848 6.47972L9.16661 11.3671L6.89967 9.24387L5.7662 10.3055L9.16661 13.4902L15.5183 7.54131L14.3848 6.47972ZM0.0133176 10.9865C0.22718 12.9494 1.05055 14.8022 2.37649 16.3245L3.89491 14.8923C2.95064 13.7602 2.34864 12.4112 2.15194 10.9865H0.0133176ZM5.40264 16.3645L3.87353 17.7366C5.49329 19.0012 7.47632 19.7887 9.57295 20V17.997C8.05175 17.8128 6.61139 17.2489 5.40264 16.3645Z" fill="#333333"/>
</svg>
