<svg width="161" height="92" viewBox="0 0 161 92" fill="none" xmlns="http://www.w3.org/2000/svg">
<g clip-path="url(#clip0_837_1399)">
<path d="M89.3016 39.7357C101.722 43.3843 108.818 44.525 108.818 44.525C109.245 35.6897 110.386 30.8192 110.125 20.3219C110.125 20.3219 107.737 17.9849 108.096 16.622C108.241 16.0537 109.459 12.9733 109.459 12.9733L114.453 8.43604C114.453 8.43604 117.277 10.7346 117.136 13.3792C117.136 13.3792 117.636 16.1862 117.136 17.6003C116.636 19.0145 115.573 21.8727 115.573 21.8727C115.573 21.8727 115.876 32.4256 117.324 38.4112C118.773 44.3969 117.7 54.1593 115.291 54.3772C112.881 54.5951 87.7678 52.3606 87.7678 52.3606C87.7678 52.3606 86.5331 38.9196 89.3016 39.7357Z" fill="#FFD8C1"/>
<mask id="mask0_837_1399" style="mask-type:luminance" maskUnits="userSpaceOnUse" x="87" y="8" width="31" height="47">
<path d="M89.3003 39.7361C101.72 43.3848 108.817 44.5255 108.817 44.5255C109.244 35.6902 110.385 30.8196 110.124 20.3223C110.124 20.3223 107.736 17.9853 108.095 16.6224C108.24 16.0542 109.457 12.9738 109.457 12.9738L114.452 8.43652C114.452 8.43652 117.276 10.7351 117.135 13.3797C117.135 13.3797 117.635 16.1867 117.135 17.6008C116.635 19.015 115.571 21.8732 115.571 21.8732C115.571 21.8732 115.875 32.4261 117.323 38.4117C118.771 44.3973 117.699 54.1598 115.289 54.3777C112.88 54.5956 87.7665 52.3611 87.7665 52.3611C87.7665 52.3611 86.5318 38.9201 89.3003 39.7361Z" fill="white"/>
</mask>
<g mask="url(#mask0_837_1399)">
<g opacity="0.5">
<path d="M115.985 39.7369C116.167 40.0536 116.225 40.4266 116.147 40.7836C116.044 41.1456 115.826 41.4647 115.528 41.6936C115.22 41.9433 114.834 42.0751 114.438 42.0653C114.228 42.0611 114.021 42.0129 113.83 41.9239C113.64 41.8348 113.47 41.7069 113.332 41.5484L113.22 41.4373L113.144 41.3134L112.981 41.0528C112.898 40.8745 112.823 40.6919 112.759 40.5059C112.652 40.1312 112.588 39.7457 112.567 39.3566C112.574 38.955 112.639 38.5564 112.759 38.1732C112.881 37.8044 113.039 37.4481 113.229 37.1093C113.995 35.8359 114.966 34.6983 116.104 33.7427C116.22 33.6401 116.339 33.5376 116.455 33.4436C116.544 34.1272 116.643 34.798 116.749 35.4516C115.796 36.0831 114.944 36.8568 114.224 37.7459C113.835 38.2265 113.571 38.796 113.455 39.4036C113.372 40.0132 113.488 40.6334 113.784 41.1724C113.959 41.4148 114.222 41.5791 114.517 41.6302C114.812 41.6813 115.114 41.6151 115.361 41.4458C115.646 41.2847 115.873 41.036 116.006 40.7366C116.123 40.4122 116.115 40.056 115.985 39.7369Z" fill="black"/>
<path d="M117.967 44.5433C117.766 44.9629 117.48 45.3357 117.126 45.6375C116.772 45.9393 116.358 46.1633 115.912 46.295C113.614 46.8546 110.717 45.6541 108.833 43.9964C108.905 42.6506 108.991 41.3945 109.089 40.194C110.315 42.1336 112.08 44.1673 113.968 44.1673C117.531 44.1673 117.501 39.5616 116.574 38.5833C116.47 38.4515 116.336 38.3452 116.185 38.272C116.033 38.1989 115.867 38.161 115.699 38.161C115.53 38.161 115.364 38.1989 115.212 38.272C115.061 38.3452 114.928 38.4515 114.823 38.5833C114.823 38.5833 115.357 36.3531 117.074 37.3015C117.151 37.6818 117.228 38.0407 117.313 38.391C117.766 40.4101 117.985 42.4743 117.967 44.5433Z" fill="black"/>
<path d="M111.289 35.4772C111.289 35.4772 112.755 34.5373 112.02 32.4438C111.665 31.427 110.738 31.3928 109.841 31.6363C109.905 30.7818 109.961 29.9274 110.008 29.0515C110.529 29.0536 111.045 29.1645 111.522 29.3771C111.999 29.5897 112.426 29.8993 112.776 30.2862C114.246 32.0166 113.02 35.9215 111.289 35.4772Z" fill="black"/>
<path d="M116.258 31.5508C115.766 31.9508 115.296 32.3788 114.853 32.8325C114.918 32.1337 114.826 31.429 114.584 30.7702C114.341 30.1115 113.954 29.5154 113.451 29.0258C112.509 28.2069 111.342 27.6904 110.102 27.5433C110.127 26.8384 110.149 26.1206 110.162 25.3644C110.704 25.2649 111.26 25.252 111.806 25.3259C110.995 23.2666 112.435 21.9507 113.451 22.0789C114.468 22.2071 114.383 23.5144 114.383 23.5144C114.015 22.4549 112.37 22.7668 113.028 24.5185C113.456 25.6592 114.857 25.7105 115.771 25.6079C115.852 27.3212 116.011 29.4232 116.258 31.5508Z" fill="black"/>
<path d="M111.883 36.7505C111.828 36.9342 110.644 40.3991 109.222 38.7072C109.264 38.1903 109.311 37.6861 109.354 37.182C109.758 37.4215 110.235 37.5097 110.698 37.4306C111.161 37.3516 111.581 37.1105 111.883 36.7505Z" fill="black"/>
<path d="M109.551 35.0587C109.615 34.3665 109.675 33.6744 109.734 32.9737C110.209 32.79 110.661 32.79 110.811 33.3497C111.042 34.2042 110.32 35.1783 109.551 35.0587Z" fill="black"/>
</g>
</g>
<path d="M89.3016 39.7357C101.722 43.3843 108.818 44.525 108.818 44.525C109.245 35.6897 110.386 30.8192 110.125 20.3219C110.125 20.3219 107.737 17.9849 108.096 16.622C108.241 16.0537 109.459 12.9733 109.459 12.9733L114.453 8.43604C114.453 8.43604 117.277 10.7346 117.136 13.3792C117.136 13.3792 117.636 16.1862 117.136 17.6003C116.636 19.0145 115.573 21.8727 115.573 21.8727C115.573 21.8727 115.876 32.4256 117.324 38.4112C118.773 44.3969 117.7 54.1593 115.291 54.3772C112.881 54.5951 87.7678 52.3606 87.7678 52.3606C87.7678 52.3606 86.5331 38.9196 89.3016 39.7357Z" stroke="#263238" stroke-width="0.1" stroke-linecap="round" stroke-linejoin="round"/>
<path d="M76.9288 36.8305C76.9288 36.8305 84.2774 36.275 88.6822 38.0524C93.0871 39.8297 100.436 41.4703 100.436 41.4703C100.436 41.4703 99.8246 50.0493 97.415 53.1553L85.1575 55.8213C85.1575 55.8213 81.778 39.1205 76.9288 36.8305Z" fill="#333333"/>
<mask id="mask1_837_1399" style="mask-type:luminance" maskUnits="userSpaceOnUse" x="76" y="36" width="25" height="20">
<path d="M76.9271 36.8314C76.9271 36.8314 84.2757 36.276 88.6805 38.0533C93.0854 39.8307 100.434 41.4713 100.434 41.4713C100.434 41.4713 99.8229 50.0502 97.4133 53.1563L85.1558 55.8223C85.1558 55.8223 81.7763 39.1214 76.9271 36.8314Z" fill="white"/>
</mask>
<g mask="url(#mask1_837_1399)">
<path opacity="0.2" d="M96.8369 53.2972L85.1561 55.8606C85.1561 55.8606 87.7623 54.4251 87.6555 53.9509L88.5869 48.9692C88.5869 48.9692 93.5599 49.3238 94.9698 51.9257V50.4475C94.9698 50.4475 96.8198 50.6398 96.8369 53.2972Z" fill="black" fill-opacity="0.7"/>
</g>
<path d="M76.9288 36.8305C76.9288 36.8305 84.2774 36.275 88.6822 38.0524C93.0871 39.8297 100.436 41.4703 100.436 41.4703C100.436 41.4703 99.8246 50.0493 97.415 53.1553L85.1575 55.8213C85.1575 55.8213 81.778 39.1205 76.9288 36.8305Z" stroke="#263238" stroke-width="0.1" stroke-linecap="round" stroke-linejoin="round"/>
<path d="M93.792 52.2283C94.6208 45.7342 99.9186 43.6536 107.741 45.0421C107.741 45.0421 109.13 52.7324 113.056 52.1386C116.983 51.5447 118.551 50.8569 120.221 53.2494C121.892 55.6419 117.508 59.8161 118.422 64.2765C119.337 68.7369 123.233 76.8715 122.481 82.7803C121.729 88.689 118.209 93.7689 102.858 91.8121C87.5073 89.8553 85.6573 82.7461 86.2426 78.1618C86.8279 73.5775 93.6253 63.6014 94.1081 59.7904C94.5909 55.9795 93.3135 55.9923 93.792 52.2283Z" fill="#FFC701" stroke="#263238" stroke-width="0.1" stroke-linecap="round" stroke-linejoin="round"/>
<path d="M110.961 62.0768C112.368 59.641 111.533 56.5264 109.097 55.1201C106.662 53.7138 103.547 54.5483 102.141 56.9841C100.734 59.4199 101.569 62.5346 104.005 63.9409C106.44 65.3472 109.555 64.5126 110.961 62.0768Z" fill="black"/>
<path d="M109.331 56.7018L104.567 56.0951L111.078 10.9102L114.364 11.3331L109.331 56.7018Z" fill="#3D3D3D" stroke="#263238" stroke-width="0.1" stroke-linecap="round" stroke-linejoin="round"/>
<path d="M116.179 0.997973C115.617 0.465943 114.9 0.126619 114.132 0.0290773C113.364 -0.0684645 112.585 0.0808342 111.907 0.455379L110.95 0.331479L110.369 10.8245L115.069 11.4269L117.132 1.11333L116.179 0.997973Z" fill="#FFC701" stroke="#263238" stroke-width="0.1" stroke-linecap="round" stroke-linejoin="round"/>
<path d="M110.339 54.8729L110.625 52.6128C111.647 53.121 112.81 53.2714 113.928 53.04C115.953 52.6726 118.136 52.5829 119.08 53.6937C120.025 54.8045 118.025 58.0772 117.538 60.3501C117.051 62.623 117.277 65.5112 118.397 68.5019C118.397 68.5019 116.107 70.2108 115.581 65.7932C114.962 60.5808 112.339 60.239 112.339 60.239C112.339 60.239 113.073 57.415 110.339 54.8729Z" fill="#3D3D3D" stroke="#263238" stroke-width="0.1" stroke-linecap="round" stroke-linejoin="round"/>
<path d="M112.292 72.1845L97.8166 70.3389L97.415 73.5005L101.499 74.0217C102.042 74.4489 103.208 74.8249 104.58 75.0001C105.951 75.1752 107.177 75.0941 107.801 74.8249L111.89 75.3461L112.292 72.1845Z" fill="#3D3D3D" stroke="#263238" stroke-width="0.1" stroke-linecap="round" stroke-linejoin="round"/>
<path d="M117.473 3.9825L116.776 3.84839L116.48 5.38807L117.176 5.52218L117.473 3.9825Z" fill="#333333" stroke="#263238" stroke-width="0.1" stroke-linecap="round" stroke-linejoin="round"/>
<path d="M116.978 6.53523L116.282 6.40112L115.985 7.94081L116.682 8.07492L116.978 6.53523Z" fill="#333333" stroke="#263238" stroke-width="0.1" stroke-linecap="round" stroke-linejoin="round"/>
<path d="M116.487 9.08748L115.79 8.95337L115.494 10.4931L116.19 10.6272L116.487 9.08748Z" fill="#333333" stroke="#263238" stroke-width="0.1" stroke-linecap="round" stroke-linejoin="round"/>
<path d="M109.888 4.59084L110.596 4.63574L110.695 3.07092L109.988 3.02601L109.888 4.59084Z" fill="#333333" stroke="#263238" stroke-width="0.1" stroke-linecap="round" stroke-linejoin="round"/>
<path d="M109.724 7.18239L110.432 7.22729L110.531 5.66247L109.823 5.61757L109.724 7.18239Z" fill="#333333" stroke="#263238" stroke-width="0.1" stroke-linecap="round" stroke-linejoin="round"/>
<path d="M109.548 9.78167L110.257 9.82422L110.351 8.25625L109.642 8.2137L109.548 9.78167Z" fill="#333333" stroke="#263238" stroke-width="0.1" stroke-linecap="round" stroke-linejoin="round"/>
<g opacity="0.5">
<path d="M113.804 2.64162C113.739 2.64106 113.674 2.65335 113.614 2.67779C113.554 2.70223 113.5 2.73833 113.453 2.78401C113.407 2.82969 113.371 2.88404 113.346 2.94393C113.321 3.00382 113.308 3.06806 113.308 3.13295L112.727 9.49028C112.718 9.54669 112.73 9.60446 112.762 9.652C112.794 9.69954 112.842 9.73334 112.898 9.74663C113.005 9.74663 113.103 9.66972 113.124 9.53728L114.158 3.23976C114.174 3.1772 114.178 3.11209 114.169 3.04816C114.16 2.98423 114.138 2.92272 114.105 2.86717C114.072 2.81162 114.028 2.7631 113.977 2.7244C113.925 2.6857 113.866 2.65757 113.804 2.64162Z" fill="black"/>
<path d="M115.406 2.86386C115.342 2.85427 115.278 2.85792 115.215 2.87459C115.153 2.89125 115.096 2.92056 115.045 2.96069C114.995 3.00081 114.954 3.05088 114.924 3.10774C114.894 3.16461 114.876 3.22704 114.872 3.29111L113.697 9.56299C113.683 9.62018 113.69 9.68038 113.717 9.73282C113.743 9.78526 113.788 9.82653 113.842 9.84924C113.87 9.85349 113.898 9.85221 113.926 9.84549C113.953 9.83876 113.979 9.82672 114.001 9.81005C114.024 9.79338 114.043 9.77242 114.057 9.74835C114.072 9.72428 114.081 9.69759 114.086 9.6698L115.675 3.51327C115.719 3.39096 115.716 3.25652 115.666 3.13636C115.617 3.0162 115.524 2.91901 115.406 2.86386Z" fill="black"/>
<path d="M112.214 2.45801C112.087 2.48094 111.972 2.55053 111.893 2.65321C111.814 2.75589 111.776 2.88431 111.787 3.01342V9.37076C111.781 9.4268 111.797 9.48295 111.833 9.52697C111.868 9.57098 111.919 9.5993 111.975 9.60574C112.034 9.59933 112.087 9.57119 112.126 9.52689C112.165 9.48258 112.186 9.42534 112.184 9.36648L112.65 3.00487C112.661 2.93983 112.658 2.87321 112.642 2.80936C112.625 2.74551 112.595 2.68585 112.554 2.63427C112.513 2.58269 112.461 2.54034 112.403 2.50997C112.344 2.4796 112.28 2.4619 112.214 2.45801Z" fill="black"/>
</g>
<path d="M110.488 8.68848L111.343 10.9443L102.76 72.8685" stroke="white" stroke-width="0.1" stroke-linecap="round" stroke-linejoin="round"/>
<path d="M103.58 72.9753L111.894 11.0169L110.612 6.50098" stroke="white" stroke-width="0.1" stroke-linecap="round" stroke-linejoin="round"/>
<path d="M104.405 73.0774L112.441 11.0849L110.749 4.08667" stroke="white" stroke-width="0.1" stroke-linecap="round" stroke-linejoin="round"/>
<path d="M115.496 9.32495L114.099 11.2945L106.874 73.3939" stroke="white" stroke-width="0.1" stroke-linecap="round" stroke-linejoin="round"/>
<path d="M106.05 73.2868L113.548 11.2259L115.919 7.17993" stroke="white" stroke-width="0.1" stroke-linecap="round" stroke-linejoin="round"/>
<path d="M105.229 73.1844L112.996 11.1576L116.397 4.80029" stroke="white" stroke-width="0.1" stroke-linecap="round" stroke-linejoin="round"/>
<path d="M88.682 82.3911C88.682 82.3911 131.833 87.1292 135.439 89.3252C139.045 91.5212 140.865 98.2289 140.865 98.2289C132.5 99.6473 122.575 104.667 122.575 104.667V102.924C122.575 102.924 81.3164 104.39 70.5457 105.308" fill="#BFBFBF"/>
<mask id="mask2_837_1399" style="mask-type:luminance" maskUnits="userSpaceOnUse" x="70" y="82" width="71" height="24">
<path d="M88.6813 82.3933C88.6813 82.3933 131.833 87.1314 135.438 89.3274C139.044 91.5234 140.864 98.2311 140.864 98.2311C132.499 99.6495 122.574 104.67 122.574 104.67V102.926C122.574 102.926 81.3156 104.392 70.5449 105.31" fill="white"/>
</mask>
<g mask="url(#mask2_837_1399)">
<path opacity="0.2" d="M116.042 103.17C108.202 103.469 94.7867 103.994 84.1143 104.511L88.7925 98.1879L89.9546 95.2527C89.9546 95.2527 91.1381 94.4196 92.2105 90.865C92.2105 90.865 94.4193 92.0869 94.4065 94.5564C94.4065 94.5564 101.456 94.6674 104.852 92.7662C104.852 92.7662 106.292 95.2613 105.224 96.7267C105.224 96.7267 112.59 98.4357 116.042 103.17Z" fill="black" fill-opacity="0.7"/>
</g>
<path d="M88.682 82.3911C88.682 82.3911 131.833 87.1292 135.439 89.3252C139.045 91.5212 140.865 98.2289 140.865 98.2289C132.5 99.6473 122.575 104.667 122.575 104.667V102.924C122.575 102.924 81.3164 104.39 70.5457 105.308" stroke="#263238" stroke-width="0.1" stroke-miterlimit="10"/>
<path d="M83.5299 97.9817C83.1539 96.5119 89.9385 95.2687 89.9385 95.2687C89.9385 95.2687 107.4 102.164 110.796 104.134C114.193 106.103 119.311 111.205 119.311 111.205C117.214 118.211 105.212 122.535 105.212 122.535L102.743 120.561C102.743 120.561 70.2 116.148 67.111 111.636C64.9022 108.411 63.2146 98.2465 63.2146 98.2465L74.8825 86.4333" fill="#BFBFBF"/>
<mask id="mask3_837_1399" style="mask-type:luminance" maskUnits="userSpaceOnUse" x="63" y="86" width="57" height="37">
<path d="M83.5278 97.9807C83.1518 96.511 89.9364 95.2677 89.9364 95.2677C89.9364 95.2677 107.398 102.163 110.794 104.133C114.191 106.103 119.309 111.204 119.309 111.204C117.211 118.211 105.21 122.534 105.21 122.534L102.741 120.56C102.741 120.56 70.1979 116.147 67.109 111.635C64.9001 108.41 63.2125 98.2456 63.2125 98.2456L74.8805 86.4324" fill="white"/>
</mask>
<g mask="url(#mask3_837_1399)">
<path opacity="0.2" d="M83.8101 90.1577C82.8848 92.9572 81.5486 95.6036 79.8454 98.0104C78.1779 100.43 76.1222 102.558 73.7615 104.308C71.2875 106.139 68.6829 107.787 65.9686 109.238C64.6869 105.897 63.7299 100.98 63.371 99.0486L65.332 98.1941L83.8101 90.1577Z" fill="black" fill-opacity="0.7"/>
</g>
<path d="M83.5299 97.9817C83.1539 96.5119 89.9385 95.2687 89.9385 95.2687C89.9385 95.2687 107.4 102.164 110.796 104.134C114.193 106.103 119.311 111.205 119.311 111.205C117.214 118.211 105.212 122.535 105.212 122.535L102.743 120.561C102.743 120.561 70.2 116.148 67.111 111.636C64.9022 108.411 63.2146 98.2465 63.2146 98.2465L74.8825 86.4333" stroke="#263238" stroke-width="0.1" stroke-miterlimit="10"/>
<path d="M92.2112 89.0093C92.2112 89.0093 92.2795 93.6277 91.2798 95.781" stroke="#263238" stroke-width="0.1" stroke-linecap="round" stroke-linejoin="round"/>
<path d="M109.343 90.0563C109.735 89.7395 110.072 89.3597 110.339 88.9326" stroke="#263238" stroke-width="0.1" stroke-linecap="round" stroke-linejoin="round"/>
<path d="M93.6422 96.7258C98.5897 95.3073 103.896 93.6923 108.25 90.864" stroke="#263238" stroke-width="0.1" stroke-linecap="round" stroke-linejoin="round"/>
<path d="M84.6448 87.3857C84.6448 87.3857 85.2856 91.3505 87.5286 92.393C89.7717 93.4355 89.9468 95.2512 89.9468 95.2512" stroke="#263238" stroke-width="0.1" stroke-linecap="round" stroke-linejoin="round"/>
<path d="M46.1207 68.438L41.2416 79.9265C41.2416 79.9265 39.6822 87.5399 43.993 88.6635C48.3039 89.7872 49.9957 87.9928 51.5594 82.3917C52.4139 79.3412 57.5408 70.3392 57.5408 70.3392L46.1207 68.438Z" fill="#FFD8C1" stroke="#263238" stroke-width="0.1" stroke-linecap="round" stroke-linejoin="round"/>
<path d="M49.3506 82.34C50.8203 85.5785 48.0389 90.1073 43.6811 90.1073C37.8749 90.1073 38.8575 90.8848 37.5246 85.8818C36.8068 83.1945 40.2418 77.4438 46.3684 79.7509" fill="#FFD1B7"/>
<path d="M49.3506 82.34C50.8203 85.5785 48.0389 90.1073 43.6811 90.1073C37.8749 90.1073 38.8575 90.8848 37.5246 85.8818C36.8068 83.1945 40.2418 77.4438 46.3684 79.7509" stroke="#263238" stroke-width="0.1" stroke-linecap="round" stroke-linejoin="round"/>
<path d="M87.6569 53.9286C85.0123 56.7014 86.1872 73.6159 85.1575 76.8458C85.1575 76.8458 87.0673 78.1702 87.0673 79.3452C87.0673 80.5201 92.1942 80.9601 92.1942 80.9601C92.1942 80.9601 81.6542 97.2679 74.8739 99.9125C70.6501 101.486 66.0588 101.792 61.6636 100.793L55.255 76.9184L54.6312 77.9011C54.6312 77.9011 49.7521 70.2449 44.4629 71.2746C44.4629 71.2746 48.7353 57.8379 51.5166 52.7623C53.6528 48.9171 62.4839 43.5467 70.0759 39.0479C73.2503 37.1637 78.907 35.6983 83.1025 38.0609" fill="#333333"/>
<mask id="mask4_837_1399" style="mask-type:luminance" maskUnits="userSpaceOnUse" x="44" y="36" width="49" height="66">
<path d="M87.6554 53.9296C85.0108 56.7024 86.1857 73.6168 85.1561 76.8468C85.1561 76.8468 87.0658 78.1712 87.0658 79.3461C87.0658 80.521 92.1927 80.9611 92.1927 80.9611C92.1927 80.9611 81.6527 97.2689 74.8724 99.9135C70.6486 101.487 66.0573 101.793 61.6621 100.794L55.2535 76.9194L54.6297 77.9021C54.6297 77.9021 49.7507 70.2459 44.4614 71.2756C44.4614 71.2756 48.7338 57.8389 51.5152 52.7632C53.6514 48.9181 62.4824 43.5477 70.0745 39.0488C73.2489 37.1647 78.9055 35.6993 83.101 38.0619" fill="white"/>
</mask>
<g mask="url(#mask4_837_1399)">
<path opacity="0.2" d="M62.5138 74.9838C62.5822 75.411 59.1472 80.5379 57.058 83.614L55.2764 76.9576L57.9552 73.0783C57.9552 73.0783 60.9458 69.3271 61.1595 66.0459C61.1595 66.0459 63.9878 69.3271 61.2834 74.3984C61.2834 74.3984 62.4284 74.3557 62.5138 74.9838Z" fill="black" fill-opacity="0.7"/>
<path d="M64.2355 61.3932L68.4481 64.4223L68.6318 68.1478L70.0459 65.4605L69.6785 63.5507L71.3148 64.1232L73.4083 63.3414L70.8919 61.9144L73.9637 60.748L73.1648 61.7307L74.2329 62.1494L77.3432 61.547L77.7833 60.0132L76.2324 60.308L76.0059 59.1245L78.6377 57.6206L78.8215 58.5819L79.206 60.5686L80.116 59.5603L81.0175 58.1632L81.2439 59.3467L82.9401 59.0177L81.4874 57.0738L82.2565 50.6523L78.1251 54.9632L79.1077 55.6511L80.8978 54.0019L79.9536 56.732L77.5141 55.9587L74.2799 58.2059L75.3437 59.2527L72.212 59.8551L73.434 57.9881L69.435 59.7739L69.3111 61.641L68.0465 62.3331L67.5722 59.8807L64.2355 61.3932Z" fill="#FFC727"/>
</g>
<path d="M87.6569 53.9286C85.0123 56.7014 86.1872 73.6159 85.1575 76.8458C85.1575 76.8458 87.0673 78.1702 87.0673 79.3452C87.0673 80.5201 92.1942 80.9601 92.1942 80.9601C92.1942 80.9601 81.6542 97.2679 74.8739 99.9125C70.6501 101.486 66.0588 101.792 61.6636 100.793L55.255 76.9184L54.6312 77.9011C54.6312 77.9011 49.7521 70.2449 44.4629 71.2746C44.4629 71.2746 48.7353 57.8379 51.5166 52.7623C53.6528 48.9171 62.4839 43.5467 70.0759 39.0479C73.2503 37.1637 78.907 35.6983 83.1025 38.0609" stroke="#263238" stroke-width="0.1" stroke-linecap="round" stroke-linejoin="round"/>
<path d="M61.2833 46.3455C61.2833 46.3455 62.1378 50.3787 66.94 51.7843C71.7422 53.1899 71.6396 41.7356 71.6396 41.7356L61.2833 46.3455Z" fill="#EDC1A8" stroke="#263238" stroke-width="0.1" stroke-linecap="round" stroke-linejoin="round"/>
<path d="M55.2676 76.9183C55.2676 76.9183 57.4892 73.1286 57.9549 73.0731C58.4206 73.0176 62.5905 65.6776 60.6508 62.1528" stroke="#263238" stroke-width="0.1" stroke-linecap="round" stroke-linejoin="round"/>
<path d="M61.1468 70.3389C61.1468 70.3389 60.8221 74.8676 56.4471 75.0001" stroke="#263238" stroke-width="0.1" stroke-linecap="round" stroke-linejoin="round"/>
<path d="M63.6716 51.4126C63.6716 51.4126 68.3926 56.3429 71.6311 52.8652" stroke="#263238" stroke-width="0.1" stroke-linecap="round" stroke-linejoin="round"/>
<path d="M71.2038 41.7654C72.3443 38.5716 72.5226 35.1134 71.7165 31.8193C70.7339 27.6921 65.8249 22.0312 58.3824 27.1837C54.5372 29.8369 54.3108 35.5961 55.507 40.8768C55.7933 42.1371 55.5797 43.3676 55.9941 44.5254C57.4681 48.5885 60.1597 51.7159 61.6294 51.7885C64.086 51.9124 68.9993 48.9388 68.7942 46.3497" fill="#FFD8C1"/>
<path d="M71.2038 41.7654C72.3443 38.5716 72.5226 35.1134 71.7165 31.8193C70.7339 27.6921 65.8249 22.0312 58.3824 27.1837C54.5372 29.8369 54.3108 35.5961 55.507 40.8768C55.7933 42.1371 55.5797 43.3676 55.9941 44.5254C57.4681 48.5885 60.1597 51.7159 61.6294 51.7885C64.086 51.9124 68.9993 48.9388 68.7942 46.3497" stroke="#263238" stroke-width="0.1" stroke-linecap="round" stroke-linejoin="round"/>
<path d="M61.2833 39.8981C61.2833 39.8981 63.27 38.4626 65.1798 39.6375" stroke="#263238" stroke-width="0.1" stroke-linecap="round" stroke-linejoin="round"/>
<path d="M57.5362 39.6379C57.5362 39.6379 56.0366 38.2622 55.0625 38.4545" stroke="#263238" stroke-width="0.1" stroke-linecap="round" stroke-linejoin="round"/>
<path d="M64.0859 42.1029C64.0859 42.4661 63.9022 42.7651 63.6587 42.7651C63.4152 42.7651 63.2314 42.4661 63.2314 42.1029C63.2314 41.7397 63.4152 41.4407 63.6587 41.4407C63.9022 41.4407 64.0859 41.7355 64.0859 42.1029Z" fill="#263238"/>
<path d="M57.9547 41.7355C57.9547 42.0986 57.7667 42.3977 57.5275 42.3977C57.2882 42.3977 57.1002 42.0986 57.1002 41.7355C57.1002 41.3723 57.2882 41.0732 57.5275 41.0732C57.7667 41.0732 57.9547 41.3723 57.9547 41.7355Z" fill="#263238"/>
<path d="M58.3777 41.0259C59.1126 41.9786 58.0829 45.6187 58.3777 45.8751C58.6725 46.1314 60.5438 45.3965 60.5438 45.3965C60.5438 45.3965 60.9711 44.8454 60.0696 44.5421" stroke="#263238" stroke-width="0.1" stroke-linecap="round" stroke-linejoin="round"/>
<path d="M60.074 47.6954C60.074 47.6954 62.5861 47.6954 63.2569 46.7854" stroke="white" stroke-width="0.1" stroke-linecap="round" stroke-linejoin="round"/>
<path d="M66.0599 34.0963L66.2565 37.134C66.2565 37.134 68.3927 38.2405 68.9481 39.377C69.273 40.1178 69.3911 40.9328 69.2899 41.7353C69.2899 41.7353 70.6015 39.4496 71.3022 39.6376C71.5542 39.7059 71.5542 40.663 71.5542 40.663C71.5542 40.663 74.4808 34.0963 71.8362 30.6185C69.1916 27.1408 66.0599 34.0963 66.0599 34.0963Z" fill="#323232" stroke="#263238" stroke-width="0.1" stroke-linecap="round" stroke-linejoin="round"/>
<path d="M66.2734 34.7497C66.2734 34.7497 64.526 38.0267 61.907 38.0267C61.907 38.0267 63.1887 36.8432 63.3809 35.7495C60.4109 37.3968 57.041 38.1853 53.6484 38.0267C53.6484 38.0267 52.6401 31.836 57.3526 27.0979C57.3526 27.0979 54.7251 28.3796 54.0073 29.6613C54.5597 28.1759 55.4697 26.8495 56.6568 25.7995C57.8439 24.7496 59.2715 24.0083 60.8132 23.6415C66.1965 22.2743 70.1356 26.5553 70.1356 26.5553L70.6739 24.6412C70.6739 24.6412 73.404 29.6998 71.4558 32.2717C69.5076 34.8437 66.2734 34.7497 66.2734 34.7497Z" fill="black"/>
<path d="M70.2081 41.0733C70.2081 41.0733 70.7977 38.8688 72.7716 38.2834C74.7454 37.6981 73.3953 42.9831 71.7077 43.6838C70.0201 44.3844 69.5715 44.8587 69.4946 44.2349" fill="#FFD8C1"/>
<path d="M70.2081 41.0733C70.2081 41.0733 70.7977 38.8688 72.7716 38.2834C74.7454 37.6981 73.3953 42.9831 71.7077 43.6838C70.0201 44.3844 69.5715 44.8587 69.4946 44.2349" stroke="#263238" stroke-width="0.1" stroke-linecap="round" stroke-linejoin="round"/>
<path d="M72.9424 40.7782C72.9424 40.7782 73.0364 41.6968 74.1045 41.4404C75.1726 41.1841 74.0703 40.5859 73.6089 40.5859" stroke="#263238" stroke-width="0.1" stroke-linecap="round" stroke-linejoin="round"/>
<path d="M38.9302 81.3705C38.9302 81.3705 42.1174 79.4608 44.0571 79.7855C45.9967 80.1102 45.4883 81.1014 45.5951 82.084C45.7019 83.0667 46.565 84.1006 45.5951 84.1946C44.6253 84.2886 43.0573 81.5243 43.0573 81.5243L38.9302 81.3705Z" fill="#FFD8C1" stroke="#263238" stroke-width="0.1" stroke-linecap="round" stroke-linejoin="round"/>
<path d="M39.4596 75.0005L46.8081 86.9931L45.2957 87.3862L38.1479 75.8037C38.2327 75.534 38.4123 75.3041 38.6533 75.1565C38.8944 75.0088 39.1808 74.9534 39.4596 75.0005Z" fill="#263238"/>
<path d="M37.221 81.9898C37.3535 81.0584 42.2838 81.3361 42.8478 81.4301C43.4117 81.5241 45.0951 83.5663 45.0951 83.5663C45.2253 83.8125 45.2933 84.0868 45.2933 84.3652C45.2933 84.6437 45.2253 84.918 45.0951 85.1642C45.0951 85.1642 46.0777 86.5741 45.3044 87.3687C44.5311 88.1634 37.5927 88.7914 37.221 88.6163C36.8493 88.4411 35.965 85.6256 36.0461 84.707C36.1273 83.7885 36.9775 83.6389 37.221 81.9898Z" fill="#FFD8C1" stroke="#263238" stroke-width="0.1" stroke-linecap="round" stroke-linejoin="round"/>
<path d="M45.0868 85.1643C45.0868 85.1643 43.1044 83.7544 42.4764 83.6604C41.8483 83.5664 38.5543 83.6604 38.5543 83.6604" stroke="#263238" stroke-width="0.1" stroke-linecap="round" stroke-linejoin="round"/>
<path d="M38.9302 86.1643C38.9302 86.1643 42.5404 85.8823 42.6813 85.8823C43.2879 86.2055 43.8769 86.5606 44.4458 86.9462" stroke="#263238" stroke-width="0.1" stroke-linecap="round" stroke-linejoin="round"/>
<path d="M88.6819 44.5249C88.9416 46.9467 88.6913 49.3961 87.947 51.7154" stroke="#263238" stroke-width="0.1" stroke-miterlimit="10"/>
<path d="M71.0753 80.7468C70.5387 80.6554 70.0121 80.5123 69.5031 80.3196" stroke="#263238" stroke-width="0.1" stroke-miterlimit="10"/>
<path d="M85.1572 76.8459C81.5342 79.1103 77.0396 81.0073 72.7288 80.9133" stroke="#263238" stroke-width="0.1" stroke-miterlimit="10"/>
<path d="M83.8161 83.9336C80.2529 88.1376 74.4894 94.5377 68.3372 93.7943" stroke="#263238" stroke-width="0.1" stroke-miterlimit="10"/>
<path d="M86.234 80.8662C85.8067 81.4515 85.3795 82.024 84.9181 82.5752" stroke="#263238" stroke-width="0.1" stroke-miterlimit="10"/>
<path d="M51.5167 52.7537C51.5167 52.7537 56.2164 50.6175 59.489 56.7014" stroke="#263238" stroke-width="0.1" stroke-miterlimit="10"/>
<path d="M108.25 17.6007C107.596 16.0755 108.613 13.9692 109.006 12.743C109.399 11.5168 110.967 11.7433 112.193 11.0554C112.193 11.0554 113.415 11.3716 112.193 12.4995C111.707 12.9747 111.193 13.4212 110.655 13.8368L110.288 16.4002" fill="#FFD8C1"/>
<path d="M108.25 17.6007C107.596 16.0755 108.613 13.9692 109.006 12.743C109.399 11.5168 110.967 11.7433 112.193 11.0554C112.193 11.0554 113.415 11.3716 112.193 12.4995C111.707 12.9747 111.193 13.4212 110.655 13.8368L110.288 16.4002" stroke="#263238" stroke-width="0.1" stroke-linecap="round" stroke-linejoin="round"/>
<path d="M116.748 11.4225C116.076 11.2092 115.391 11.0393 114.697 10.9141C114.364 10.9141 112.77 12.9691 112.77 12.9691L112.625 14.1184C112.98 14.1801 113.342 14.1801 113.697 14.1184C114.069 13.9149 114.403 13.649 114.684 13.3322" fill="#FFD8C1"/>
<path d="M116.748 11.4225C116.076 11.2092 115.391 11.0393 114.697 10.9141C114.364 10.9141 112.77 12.9691 112.77 12.9691L112.625 14.1184C112.98 14.1801 113.342 14.1801 113.697 14.1184C114.069 13.9149 114.403 13.649 114.684 13.3322" stroke="#263238" stroke-width="0.1" stroke-linecap="round" stroke-linejoin="round"/>
<path d="M117.136 13.388C117.136 13.388 115.667 12.901 115.128 12.7514C114.59 12.6019 113.018 15.6353 113.018 15.6353C113.018 15.6353 114.244 16.4257 115.496 14.5672" fill="#FFD8C1"/>
<path d="M117.136 13.388C117.136 13.388 115.667 12.901 115.128 12.7514C114.59 12.6019 113.018 15.6353 113.018 15.6353C113.018 15.6353 114.244 16.4257 115.496 14.5672" stroke="#263238" stroke-width="0.1" stroke-linecap="round" stroke-linejoin="round"/>
<path d="M58.987 47.2458C59.1038 47.0876 59.4423 47.9054 60.8498 47.5896C62.2573 47.2739 63.669 46.0001 63.822 46.1024C63.8873 46.1507 63.8395 46.5033 63.4985 46.9795C63.0509 47.599 62.3979 48.0396 61.6559 48.2227C60.9445 48.3998 60.1921 48.2938 59.5572 47.9272C59.1018 47.6228 58.9293 47.3095 58.987 47.2458Z" fill="#F1847D"/>
<path d="M60.0781 47.6892C60.0781 47.6892 62.4531 47.7683 63.251 46.7865" stroke="black" stroke-width="0.1" stroke-linecap="round" stroke-linejoin="round"/>
<path d="M61.4073 92.2414H1.08947C0.94604 92.2414 0.804022 92.2131 0.671563 92.1581C0.539104 92.1031 0.418812 92.0224 0.31759 91.9208C0.216368 91.8192 0.136209 91.6986 0.0817099 91.5659C0.0272111 91.4332 -0.000554095 91.2911 8.37787e-06 91.1477C-0.000554095 91.0043 0.0272111 90.8621 0.0817099 90.7295C0.136209 90.5968 0.216368 90.4762 0.31759 90.3746C0.418812 90.2729 0.539104 90.1923 0.671563 90.1373C0.804022 90.0823 0.94604 90.054 1.08947 90.054H61.4073C61.6973 90.054 61.9755 90.1692 62.1806 90.3743C62.3858 90.5794 62.501 90.8576 62.501 91.1477C62.501 91.4378 62.3858 91.716 62.1806 91.9211C61.9755 92.1262 61.6973 92.2414 61.4073 92.2414Z" fill="#6A564E"/>
<path d="M36.29 89.1826C36.29 89.1826 38.2938 86.5594 46.7959 86.9951C55.298 87.4309 57.2376 89.016 59.737 88.7255L59.4251 90.0585H36.29V89.1826Z" fill="#FFC701" stroke="#263238" stroke-width="0.1" stroke-linecap="round" stroke-linejoin="round"/>
<path d="M36.2896 89.1825C36.2896 89.1825 39.0111 87.0463 43.9799 87.4308C48.9487 87.8154 50.0937 88.9732 54.1098 88.9347L53.234 90.0584H24.1004L22.9725 88.7254C22.9725 88.7254 24.972 89.409 28.0994 88.3708C33.363 86.6234 36.2896 89.1825 36.2896 89.1825Z" fill="white" stroke="#263238" stroke-width="0.1" stroke-linecap="round" stroke-linejoin="round"/>
<path d="M57.6221 88.986C58.3346 88.9788 59.044 88.8913 59.7369 88.7253" stroke="#263238" stroke-width="0.1" stroke-linecap="round" stroke-linejoin="round"/>
<path d="M54.1101 88.9348C54.8749 88.9818 55.6439 89.0032 56.4129 89.0074" stroke="#263238" stroke-width="0.1" stroke-linecap="round" stroke-linejoin="round"/>
<path d="M36.2577 62.0805C36.2577 61.9652 35.4374 62.0036 34.5487 61.696C34.1653 61.5733 33.8066 61.3838 33.4891 61.1363C33.3802 61.0465 33.2775 60.9494 33.1815 60.8458C33.1815 60.7689 33.1815 60.7262 33.1474 60.7219C33.0534 60.7219 32.7757 61.7601 32.4766 63.0803C32.3599 63.5968 32.2785 64.1207 32.2331 64.6483C32.178 64.5618 32.1104 64.484 32.0323 64.4176C31.8475 64.2586 31.6136 64.1682 31.3699 64.1615C31.1263 64.1549 30.8878 64.2325 30.6947 64.3812C30.5016 64.53 30.3656 64.7407 30.3098 64.978C30.254 65.2153 30.2816 65.4645 30.3882 65.6838C30.4947 65.903 30.6735 66.0788 30.8946 66.1815C31.1156 66.2843 31.3653 66.3077 31.6016 66.2478C31.8378 66.1879 32.0462 66.0483 32.1916 65.8527C32.337 65.6571 32.4105 65.4173 32.3997 65.1738C32.5022 64.7465 32.6432 64.0074 32.8269 63.1572C32.9167 62.73 32.9935 62.3625 33.0491 62.0207C33.4181 62.4088 33.8832 62.6923 34.3972 62.8424C34.9113 62.9924 35.4559 63.0038 35.9757 62.8752C35.8646 63.3025 35.7364 63.828 35.5997 64.4261C35.4824 64.9425 35.401 65.4664 35.3562 65.9941C35.3028 65.9063 35.2366 65.8271 35.1597 65.7591C35.0012 65.6232 34.8059 65.5374 34.5986 65.5125C34.3913 65.4876 34.1813 65.5248 33.9951 65.6193C33.809 65.7138 33.655 65.8614 33.5527 66.0434C33.4505 66.2255 33.4045 66.4337 33.4207 66.6419C33.4368 66.85 33.5144 67.0487 33.6435 67.2128C33.7726 67.3769 33.9475 67.499 34.146 67.5636C34.3445 67.6283 34.5577 67.6326 34.7587 67.5761C34.9597 67.5195 35.1394 67.4046 35.275 67.2459C35.4497 67.0457 35.5387 66.7848 35.5228 66.5196C35.6296 66.0923 35.7663 65.3532 35.9501 64.503C36.2449 63.1871 36.3645 62.0805 36.2577 62.0805ZM34.506 62.5078C34.007 62.3398 33.5226 62.1312 33.0576 61.884C33.1046 61.5807 33.1388 61.3243 33.1516 61.1278C33.1895 61.1946 33.2339 61.2576 33.2841 61.3158C33.5843 61.6591 33.9752 61.9108 34.412 62.0421C34.9893 62.259 35.6205 62.2874 36.2149 62.1233C36.1283 62.3237 36.0582 62.5309 36.0056 62.7428C35.4993 62.7129 34.9971 62.6342 34.506 62.5078Z" fill="#C1C1C1"/>
<path d="M22.7001 52.0266C22.7001 51.9112 21.8798 51.9497 20.9911 51.6421C20.6077 51.5194 20.249 51.3299 19.9315 51.0824C19.8226 50.9925 19.7199 50.8955 19.6239 50.7919C19.6239 50.715 19.6239 50.6722 19.5897 50.668C19.4958 50.668 19.218 51.7062 18.919 53.0263C18.8023 53.5429 18.7209 54.0667 18.6754 54.5943C18.6204 54.5078 18.5527 54.43 18.4747 54.3636C18.2899 54.2046 18.056 54.1142 17.8123 54.1076C17.5686 54.101 17.3302 54.1786 17.137 54.3273C16.9439 54.476 16.808 54.6868 16.7522 54.924C16.6963 55.1613 16.724 55.4106 16.8305 55.6298C16.9371 55.849 17.1159 56.0248 17.337 56.1276C17.558 56.2303 17.8077 56.2537 18.0439 56.1938C18.2802 56.1339 18.4886 55.9944 18.634 55.7987C18.7794 55.6031 18.8529 55.3633 18.8421 55.1198C18.9446 54.6926 19.0856 53.9534 19.2693 53.1032C19.359 52.676 19.4359 52.3086 19.4915 51.9668C19.8605 52.3548 20.3256 52.6383 20.8396 52.7884C21.3537 52.9385 21.8982 52.9498 22.4181 52.8213C22.307 53.2485 22.1788 53.774 22.0421 54.3721C21.9248 54.8885 21.8434 55.4125 21.7986 55.9401C21.7452 55.8524 21.6789 55.7732 21.602 55.7051C21.4435 55.5692 21.2483 55.4834 21.041 55.4585C20.8337 55.4336 20.6237 55.4708 20.4375 55.5653C20.2513 55.6598 20.0974 55.8074 19.9951 55.9895C19.8929 56.1715 19.8469 56.3798 19.8631 56.5879C19.8792 56.7961 19.9568 56.9948 20.0859 57.1589C20.215 57.3229 20.3898 57.445 20.5884 57.5097C20.7869 57.5744 21.0001 57.5787 21.2011 57.5221C21.4021 57.4655 21.5818 57.3506 21.7174 57.1919C21.8921 56.9917 21.9811 56.7309 21.9652 56.4656C22.072 56.0384 22.2087 55.2993 22.3924 54.449C22.6872 53.1331 22.8069 52.0266 22.7001 52.0266ZM20.9484 52.4538C20.4494 52.2858 19.965 52.0772 19.5 51.8301C19.547 51.5267 19.5812 51.2704 19.594 51.0738C19.6319 51.1407 19.6763 51.2037 19.7265 51.2618C20.0267 51.6051 20.4176 51.8568 20.8544 51.9881C21.4317 52.205 22.0629 52.2335 22.6573 52.0693C22.5706 52.2697 22.5006 52.4769 22.448 52.6888C21.9417 52.6589 21.4395 52.5802 20.9484 52.4538Z" fill="#C1C1C1"/>
<path d="M45.441 44.842C45.441 44.7267 44.6207 44.7651 43.7321 44.4575C43.3487 44.3348 42.99 44.1453 42.6725 43.8978C42.5636 43.808 42.4608 43.7109 42.3649 43.6073C42.3649 43.5304 42.3649 43.4877 42.3307 43.4834C42.2367 43.4834 41.959 44.5216 41.6599 45.8418C41.5433 46.3583 41.4619 46.8822 41.4164 47.4097C41.3614 47.3232 41.2937 47.2455 41.2156 47.179C41.0309 47.02 40.7969 46.9296 40.5533 46.923C40.3096 46.9164 40.0711 46.994 39.878 47.1427C39.6849 47.2914 39.549 47.5022 39.4931 47.7395C39.4373 47.9767 39.465 48.226 39.5715 48.4452C39.678 48.6645 39.8569 48.8403 40.0779 48.943C40.299 49.0458 40.5486 49.0691 40.7849 49.0092C41.0212 48.9493 41.2296 48.8098 41.375 48.6142C41.5203 48.4185 41.5938 48.1787 41.583 47.9352C41.6856 47.508 41.8266 46.7689 42.0103 45.9187C42.1 45.4914 42.1769 45.124 42.2324 44.7822C42.6014 45.1703 43.0666 45.4538 43.5806 45.6038C44.0946 45.7539 44.6392 45.7653 45.159 45.6367C45.048 46.0639 44.9198 46.5894 44.7831 47.1876C44.6658 47.704 44.5844 48.2279 44.5395 48.7555C44.4862 48.6678 44.4199 48.5886 44.343 48.5206C44.1845 48.3847 43.9893 48.2989 43.782 48.274C43.5747 48.2491 43.3646 48.2862 43.1785 48.3807C42.9923 48.4753 42.8384 48.6229 42.7361 48.8049C42.6338 48.9869 42.5879 49.1952 42.604 49.4034C42.6202 49.6115 42.6977 49.8102 42.8268 49.9743C42.9559 50.1384 43.1308 50.2605 43.3293 50.3251C43.5278 50.3898 43.7411 50.3941 43.9421 50.3375C44.143 50.281 44.3227 50.1661 44.4584 50.0074C44.6331 49.8071 44.7221 49.5463 44.7062 49.281C44.813 48.8538 44.9497 48.1147 45.1334 47.2645C45.4282 45.9486 45.5478 44.842 45.441 44.842ZM43.6893 45.2693C43.1903 45.1012 42.7059 44.8926 42.241 44.6455C42.288 44.3422 42.3222 44.0858 42.335 43.8893C42.3729 43.9561 42.4172 44.0191 42.4674 44.0773C42.7677 44.4205 43.1586 44.6723 43.5953 44.8036C44.1726 45.0205 44.8038 45.0489 45.3983 44.8847C45.3116 45.0851 45.2416 45.2923 45.1889 45.5042C44.6827 45.4743 44.1805 45.3956 43.6893 45.2693Z" fill="#C1C1C1"/>
<path d="M25.4907 33.4614C25.4907 33.3461 24.6704 33.3845 23.7817 33.0769C23.3984 32.9542 23.0397 32.7647 22.7222 32.5172C22.6133 32.4273 22.5105 32.3303 22.4146 32.2267C22.4146 32.1498 22.4146 32.1071 22.3804 32.1028C22.2864 32.1028 22.0087 33.141 21.7096 34.4611C21.5929 34.9777 21.5116 35.5015 21.4661 36.0291C21.4111 35.9426 21.3434 35.8648 21.2653 35.7984C21.0805 35.6394 20.8466 35.549 20.603 35.5424C20.3593 35.5358 20.1208 35.6134 19.9277 35.7621C19.7346 35.9108 19.5987 36.1216 19.5428 36.3589C19.487 36.5961 19.5147 36.8454 19.6212 37.0646C19.7277 37.2839 19.9066 37.4597 20.1276 37.5624C20.3486 37.6651 20.5983 37.6885 20.8346 37.6286C21.0709 37.5687 21.2793 37.4292 21.4246 37.2336C21.57 37.0379 21.6435 36.7981 21.6327 36.5546C21.7353 36.1274 21.8762 35.3883 22.06 34.5381C22.1497 34.1108 22.2266 33.7434 22.2821 33.4016C22.6511 33.7897 23.1162 34.0731 23.6303 34.2232C24.1443 34.3733 24.6889 34.3846 25.2087 34.2561C25.0976 34.6833 24.9695 35.2088 24.8327 35.807C24.7154 36.3234 24.6341 36.8473 24.5892 37.3749C24.5359 37.2872 24.4696 37.208 24.3927 37.1399C24.2342 37.0041 24.0389 36.9182 23.8316 36.8933C23.6243 36.8685 23.4143 36.9056 23.2282 37.0001C23.042 37.0946 22.888 37.2423 22.7858 37.4243C22.6835 37.6063 22.6376 37.8146 22.6537 38.0227C22.6699 38.2309 22.7474 38.4296 22.8765 38.5937C23.0056 38.7577 23.1805 38.8798 23.379 38.9445C23.5775 39.0092 23.7908 39.0135 23.9917 38.9569C24.1927 38.9004 24.3724 38.7855 24.5081 38.6267C24.6828 38.4265 24.7717 38.1657 24.7558 37.9004C24.8627 37.4732 24.9994 36.7341 25.1831 35.8839C25.4779 34.568 25.5975 33.4614 25.4907 33.4614ZM23.739 33.8886C23.24 33.7206 22.7556 33.512 22.2907 33.2649C22.3377 32.9615 22.3719 32.7052 22.3847 32.5087C22.4226 32.5755 22.4669 32.6385 22.5171 32.6966C22.8174 33.0399 23.2083 33.2917 23.645 33.423C24.2223 33.6399 24.8535 33.6683 25.448 33.5041C25.3613 33.7045 25.2913 33.9117 25.2386 34.1236C24.7324 34.0937 24.2302 34.015 23.739 33.8886Z" fill="#C1C1C1"/>
<path d="M10.6561 34.8099C10.6561 34.7162 9.9894 34.7475 9.2671 34.4975C8.95548 34.3978 8.66393 34.2439 8.40589 34.0428C8.31737 33.9698 8.23384 33.8909 8.15587 33.8067C8.15587 33.7442 8.15587 33.7095 8.12809 33.7061C8.05169 33.7061 7.82597 34.5496 7.58289 35.6222C7.48806 36.0419 7.42192 36.4676 7.38495 36.8962C7.34023 36.8259 7.28522 36.7627 7.22175 36.7088C7.07158 36.5796 6.88144 36.5061 6.6834 36.5008C6.48536 36.4954 6.29151 36.5584 6.13455 36.6793C5.97759 36.8001 5.86711 36.9714 5.82173 37.1641C5.77634 37.3569 5.79885 37.5594 5.88543 37.7376C5.97201 37.9157 6.11738 38.0585 6.29703 38.142C6.47669 38.2255 6.67963 38.2445 6.87167 38.1958C7.06371 38.1472 7.23309 38.0338 7.35126 37.8748C7.46943 37.7159 7.52916 37.5211 7.52039 37.3232C7.60373 36.9761 7.71833 36.3755 7.86765 35.6847C7.94057 35.3376 8.00307 35.0391 8.04822 34.7613C8.34813 35.0767 8.72619 35.307 9.14399 35.4289C9.56179 35.5509 10.0044 35.5601 10.4269 35.4556C10.3367 35.8028 10.2325 36.2297 10.1214 36.7157C10.026 37.1353 9.95987 37.561 9.92342 37.9897C9.88004 37.9184 9.82619 37.8541 9.76368 37.7988C9.63484 37.6884 9.47614 37.6186 9.30766 37.5984C9.13917 37.5782 8.96847 37.6084 8.81715 37.6852C8.66583 37.762 8.5407 37.8819 8.45759 38.0298C8.37448 38.1777 8.33713 38.3469 8.35026 38.5161C8.36338 38.6852 8.4264 38.8466 8.53134 38.9799C8.63627 39.1132 8.77841 39.2125 8.93976 39.265C9.10112 39.3175 9.27444 39.321 9.43779 39.2751C9.60114 39.2291 9.74719 39.1358 9.85744 39.0068C9.99944 38.8441 10.0718 38.6322 10.0588 38.4167C10.1457 38.0695 10.2568 37.469 10.4061 36.7782C10.6457 35.709 10.7429 34.8099 10.6561 34.8099ZM9.23237 35.1571C8.82678 35.0206 8.43307 34.8511 8.05517 34.6503C8.09337 34.4038 8.12115 34.1955 8.13157 34.0358C8.16237 34.0901 8.19842 34.1413 8.23922 34.1886C8.48326 34.4675 8.80098 34.672 9.15597 34.7787C9.62521 34.9549 10.1382 34.978 10.6214 34.8447C10.5509 35.0075 10.494 35.1758 10.4513 35.348C10.0398 35.3237 9.63157 35.2598 9.23237 35.1571Z" fill="#C1C1C1"/>
<path d="M26.243 15.1741C26.243 15.0587 25.4227 15.0972 24.5341 14.7895C24.1507 14.6668 23.792 14.4774 23.4745 14.2299C23.3656 14.14 23.2628 14.0429 23.1669 13.9393C23.1669 13.8624 23.1669 13.8197 23.1327 13.8154C23.0387 13.8154 22.761 14.8536 22.4619 16.1738C22.3453 16.6903 22.2639 17.2142 22.2184 17.7418C22.1634 17.6553 22.0957 17.5775 22.0176 17.5111C21.8329 17.3521 21.5989 17.2617 21.3553 17.255C21.1116 17.2484 20.8731 17.326 20.68 17.4748C20.4869 17.6235 20.351 17.8342 20.2951 18.0715C20.2393 18.3088 20.267 18.558 20.3735 18.7773C20.48 18.9965 20.6589 19.1723 20.8799 19.275C21.101 19.3778 21.3506 19.4012 21.5869 19.3413C21.8232 19.2814 22.0316 19.1418 22.177 18.9462C22.3223 18.7506 22.3958 18.5108 22.385 18.2673C22.4876 17.84 22.6286 17.1009 22.8123 16.2507C22.902 15.8235 22.9789 15.456 23.0344 15.1142C23.4034 15.5023 23.8686 15.7858 24.3826 15.9359C24.8966 16.0859 25.4412 16.0973 25.961 15.9687C25.85 16.396 25.7218 16.9215 25.5851 17.5196C25.4678 18.036 25.3864 18.5599 25.3416 19.0876C25.2882 18.9999 25.2219 18.9206 25.145 18.8526C24.9865 18.7167 24.7913 18.6309 24.584 18.606C24.3767 18.5811 24.1666 18.6183 23.9805 18.7128C23.7943 18.8073 23.6404 18.9549 23.5381 19.1369C23.4358 19.319 23.3899 19.5272 23.406 19.7354C23.4222 19.9435 23.4997 20.1422 23.6288 20.3063C23.7579 20.4704 23.9328 20.5925 24.1313 20.6572C24.3298 20.7218 24.5431 20.7261 24.7441 20.6696C24.945 20.613 25.1247 20.4981 25.2604 20.3394C25.4351 20.1392 25.5241 19.8783 25.5082 19.6131C25.615 19.1858 25.7517 18.4467 25.9354 17.5965C26.2302 16.2806 26.3498 15.1741 26.243 15.1741ZM24.4913 15.6013C23.9923 15.4333 23.5079 15.2247 23.043 14.9775C23.09 14.6742 23.1242 14.4178 23.137 14.2213C23.1749 14.2881 23.2192 14.3511 23.2694 14.4093C23.5697 14.7526 23.9606 15.0043 24.3973 15.1356C24.9746 15.3525 25.6058 15.3809 26.2003 15.2168C26.1136 15.4172 26.0436 15.6244 25.991 15.8363C25.4847 15.8064 24.9825 15.7277 24.4913 15.6013Z" fill="#C1C1C1"/>
<path d="M35.6442 35.2611C35.7437 35.0469 35.7952 34.8136 35.7952 34.5775C35.7952 34.3413 35.7437 34.1081 35.6442 33.8939C35.5802 33.2018 35.4605 32.108 35.3836 30.8648C35.3409 30.1085 35.2811 29.4036 35.2127 28.814C35.6878 29.094 36.2419 29.2096 36.7892 29.143C37.8573 29.0404 38.4982 28.3654 38.4213 28.2885C38.3444 28.2116 37.7035 28.6816 36.7593 28.7627C36.2339 28.8038 35.7053 28.7561 35.1956 28.6217C35.1273 28.0279 35.0546 27.5665 34.9948 27.3058C35.5355 27.5287 36.1297 27.5881 36.7038 27.4767C37.789 27.2973 38.4598 26.6223 38.3914 26.5838C38.323 26.5454 37.6309 26.9598 36.6483 27.1179C36.0821 27.1973 35.5087 27.2116 34.9393 27.1606C34.9393 27.0922 34.9008 27.0538 34.8838 27.058C34.8667 27.0623 34.8838 27.105 34.8538 27.1777C34.8538 27.1777 34.8538 27.1777 34.8538 27.2076C34.8282 27.6775 34.9051 29.1302 35.0077 30.8648C35.0586 31.7246 35.1613 32.5807 35.3153 33.4282C35.1728 33.2844 35.0047 33.1685 34.8197 33.0864C34.4175 32.9152 33.9643 32.9088 33.5575 33.0686C33.1507 33.2284 32.823 33.5417 32.645 33.9409C32.5555 34.1367 32.5058 34.3484 32.4989 34.5636C32.492 34.7788 32.5279 34.9933 32.6046 35.1945C32.6814 35.3956 32.7974 35.5796 32.9459 35.7355C33.0944 35.8914 33.2724 36.0163 33.4696 36.1027C33.87 36.2759 34.3224 36.2847 34.7293 36.1273C35.1361 35.9698 35.4648 35.6587 35.6442 35.2611Z" fill="#C1C1C1"/>
<path d="M7.55977 27.2249C7.65919 27.0107 7.71069 26.7775 7.71069 26.5413C7.71069 26.3052 7.65919 26.0719 7.55977 25.8578C7.49568 25.1656 7.37605 24.0719 7.29915 22.8286C7.25642 22.0724 7.19661 21.3675 7.12825 20.7779C7.6033 21.0579 8.15739 21.1735 8.70477 21.1068C9.77287 21.0043 10.4137 20.3293 10.3368 20.2524C10.2599 20.1755 9.61906 20.6454 8.67486 20.7266C8.14941 20.7676 7.6208 20.72 7.11116 20.5856C7.04281 19.9917 6.97017 19.5303 6.91036 19.2697C7.45105 19.4925 8.04521 19.552 8.61932 19.4406C9.70451 19.2612 10.3753 18.5861 10.3069 18.5477C10.2386 18.5092 9.54644 18.9236 8.56378 19.0817C7.99763 19.1612 7.42424 19.1755 6.85482 19.1244C6.85482 19.0561 6.81637 19.0176 6.79928 19.0219C6.78219 19.0262 6.79928 19.0689 6.76937 19.1415C6.76937 19.1415 6.76937 19.1415 6.76937 19.1714C6.74374 19.6414 6.82064 21.094 6.92318 22.8286C6.97413 23.6885 7.07686 24.5445 7.23079 25.3921C7.08828 25.2483 6.92021 25.1324 6.73519 25.0503C6.33308 24.879 5.87978 24.8726 5.473 25.0325C5.06622 25.1923 4.73852 25.5056 4.56054 25.9048C4.47102 26.1006 4.42135 26.3123 4.41442 26.5275C4.40748 26.7427 4.44343 26.9571 4.52017 27.1583C4.59691 27.3595 4.7129 27.5434 4.86139 27.6994C5.00989 27.8553 5.18791 27.9801 5.38511 28.0666C5.78552 28.2398 6.23797 28.2486 6.64482 28.0911C7.05167 27.9337 7.38029 27.6226 7.55977 27.2249Z" fill="#C1C1C1"/>
<path d="M32.1382 54.442C32.2013 54.3064 32.234 54.1587 32.234 54.0092C32.234 53.8596 32.2013 53.7119 32.1382 53.5763C32.0976 53.138 32.0217 52.4455 31.973 51.6582C31.9459 51.1793 31.9079 50.7329 31.8646 50.3596C32.1659 50.5369 32.5173 50.6101 32.8644 50.5679C33.5418 50.503 33.9482 50.0755 33.8994 50.0268C33.8507 49.9781 33.4442 50.2757 32.8454 50.3271C32.5122 50.3531 32.177 50.3229 31.8537 50.2379C31.8104 49.8618 31.7643 49.5696 31.7264 49.4046C32.0693 49.5457 32.4461 49.5833 32.8102 49.5128C33.4984 49.3992 33.9238 48.9717 33.8805 48.9474C33.8371 48.923 33.3982 49.1855 32.775 49.2856C32.4159 49.3359 32.0523 49.345 31.6912 49.3126C31.6912 49.2693 31.6668 49.245 31.6559 49.2477C31.6451 49.2504 31.6559 49.2774 31.637 49.3234C31.637 49.3234 31.637 49.3234 31.637 49.3424C31.6207 49.64 31.6695 50.5598 31.7345 51.6582C31.7668 52.2027 31.832 52.7447 31.9296 53.2814C31.8392 53.1904 31.7326 53.117 31.6153 53.065C31.3603 52.9566 31.0728 52.9525 30.8148 53.0537C30.5568 53.1549 30.349 53.3533 30.2361 53.6061C30.1794 53.7301 30.1479 53.8641 30.1435 54.0004C30.1391 54.1367 30.1619 54.2725 30.2105 54.3999C30.2592 54.5272 30.3328 54.6437 30.4269 54.7424C30.5211 54.8412 30.634 54.9202 30.7591 54.975C31.013 55.0847 31.3 55.0903 31.558 54.9905C31.816 54.8908 32.0244 54.6938 32.1382 54.442Z" fill="#C1C1C1"/>
<path d="M24.5187 73.9369C24.5818 73.8013 24.6145 73.6536 24.6145 73.504C24.6145 73.3545 24.5818 73.2068 24.5187 73.0712C24.4781 72.6329 24.4022 71.9403 24.3535 71.1531C24.3264 70.6742 24.2884 70.2278 24.2451 69.8545C24.5464 70.0318 24.8978 70.105 25.2449 70.0628C25.9223 69.9979 26.3287 69.5704 26.2799 69.5217C26.2312 69.473 25.8247 69.7706 25.2259 69.822C24.8927 69.848 24.5575 69.8178 24.2342 69.7327C24.1909 69.3567 24.1448 69.0645 24.1069 68.8995C24.4498 69.0406 24.8266 69.0782 25.1907 69.0077C25.8789 68.8941 26.3043 68.4666 26.261 68.4423C26.2176 68.4179 25.7787 68.6803 25.1555 68.7804C24.7964 68.8307 24.4328 68.8398 24.0717 68.8075C24.0717 68.7642 24.0473 68.7399 24.0364 68.7426C24.0256 68.7453 24.0364 68.7723 24.0175 68.8183C24.0175 68.8183 24.0175 68.8183 24.0175 68.8372C24.0012 69.1348 24.05 70.0547 24.115 71.1531C24.1473 71.6976 24.2125 72.2396 24.3101 72.7763C24.2197 72.6853 24.1131 72.6119 23.9958 72.5599C23.7408 72.4514 23.4533 72.4474 23.1953 72.5486C22.9373 72.6498 22.7295 72.8482 22.6166 73.1009C22.5599 73.2249 22.5284 73.359 22.524 73.4953C22.5196 73.6315 22.5424 73.7673 22.591 73.8947C22.6397 74.0221 22.7133 74.1386 22.8074 74.2373C22.9016 74.3361 23.0145 74.4151 23.1396 74.4699C23.3935 74.5795 23.6805 74.5851 23.9385 74.4854C24.1965 74.3857 24.4049 74.1887 24.5187 73.9369Z" fill="#C1C1C1"/>
<path d="M8.9223 53.195C8.98536 53.0593 9.01802 52.9116 9.01802 52.7621C9.01802 52.6126 8.98536 52.4649 8.9223 52.3292C8.88166 51.891 8.80579 51.1984 8.75702 50.4111C8.72993 49.9323 8.69199 49.4859 8.64864 49.1125C8.94992 49.2898 9.30131 49.363 9.64846 49.3208C10.3258 49.2559 10.7323 48.8285 10.6835 48.7798C10.6347 48.7311 10.2283 49.0287 9.6295 49.0801C9.29626 49.106 8.96102 49.0759 8.6378 48.9908C8.59445 48.6147 8.54839 48.3226 8.51045 48.1575C8.85336 48.2986 9.23017 48.3363 9.59427 48.2657C10.2825 48.1521 10.7079 47.7247 10.6645 47.7003C10.6212 47.676 10.1822 47.9384 9.55905 48.0385C9.2 48.0888 8.83635 48.0979 8.47523 48.0655C8.47523 48.0223 8.45084 47.9979 8.44001 48.0006C8.42917 48.0033 8.44001 48.0304 8.42104 48.0764C8.42104 48.0764 8.42104 48.0764 8.42104 48.0953C8.40478 48.3929 8.45355 49.3127 8.51858 50.4111C8.5509 50.9556 8.61605 51.4977 8.71367 52.0343C8.62329 51.9433 8.5167 51.8699 8.39936 51.8179C8.14434 51.7095 7.85686 51.7054 7.59888 51.8066C7.34091 51.9079 7.13308 52.1062 7.02021 52.359C6.96343 52.483 6.93193 52.617 6.92754 52.7533C6.92314 52.8896 6.94594 53.0254 6.9946 53.1528C7.04327 53.2802 7.11683 53.3966 7.21101 53.4954C7.30518 53.5941 7.41809 53.6732 7.54315 53.7279C7.79708 53.8376 8.08403 53.8432 8.34205 53.7435C8.60007 53.6438 8.80849 53.4467 8.9223 53.195Z" fill="#C1C1C1"/>
</g>
<defs>
<clipPath id="clip0_837_1399">
<rect width="161" height="92" fill="white"/>
</clipPath>
</defs>
</svg>
