<svg width="20" height="20" viewBox="0 0 20 20" fill="none" xmlns="http://www.w3.org/2000/svg">
<g id="Music" clip-path="url(#clip0_1_12696)">
<path id="Vector" d="M3.71721 14.1711C2.07971 14.1711 0.747559 12.952 0.747559 11.4536C0.747559 9.95512 2.07971 8.73606 3.71721 8.73606C3.94148 8.73591 4.16517 8.75913 4.38463 8.80536V1.90629C4.38589 1.68445 4.46265 1.46964 4.60226 1.29723C4.74187 1.12481 4.93602 1.00507 5.15275 0.9577L9.38533 0.0455516C9.75853 -0.035802 10.1451 -0.0333117 10.5173 0.0528428C10.8894 0.138997 11.2377 0.306668 11.5372 0.543761C11.8367 0.780853 12.0798 1.08146 12.249 1.42389C12.4183 1.76632 12.5094 2.14204 12.5158 2.52395C12.5167 2.59082 12.4948 2.656 12.4535 2.70866C12.4123 2.76132 12.3543 2.79828 12.2891 2.8134L6.68689 4.11457V9.70493C6.68689 9.89114 6.69354 10.0805 6.70057 10.2809C6.72674 11.0289 6.75385 11.8023 6.43896 12.5043C5.99178 13.5013 4.89795 14.1711 3.71721 14.1711Z" fill="#FFC701"/>
<path id="Vector_2" d="M8.48458 19.9867C6.84708 19.9867 5.51489 18.7676 5.51489 17.2692C5.51489 15.7707 6.84704 14.5517 8.48454 14.5517C8.70883 14.5516 8.93252 14.5748 9.152 14.621V7.04433C9.15326 6.82249 9.23001 6.60769 9.36962 6.43528C9.50922 6.26286 9.70336 6.14312 9.92009 6.09574L18.1638 4.31918C18.2938 4.29093 18.4284 4.29211 18.5578 4.32262C18.6872 4.35314 18.8082 4.41223 18.9118 4.49556C19.0154 4.57888 19.0991 4.68434 19.1567 4.80419C19.2143 4.92405 19.2443 5.05527 19.2446 5.18824L19.2445 12.5826C19.2444 13.5689 19.2445 14.5552 19.2446 15.5415C19.2447 15.6566 19.2466 15.773 19.2485 15.8856C19.2603 16.5969 19.2726 17.3323 18.8051 18.0384C18.5257 18.4531 18.1491 18.7931 17.708 19.0288C17.267 19.2645 16.775 19.3887 16.275 19.3905C14.6375 19.3905 13.3053 18.1714 13.3053 16.673C13.3053 15.1745 14.6375 13.9555 16.275 13.9555C16.4992 13.9554 16.7229 13.9786 16.9424 14.0248V7.97793L11.4542 9.25265V15.5205C11.4542 15.7067 11.4609 15.8961 11.4679 16.0965C11.4941 16.8445 11.5212 17.6179 11.2063 18.3199C10.7591 19.3169 9.66528 19.9867 8.48458 19.9867Z" fill="#FFC701"/>
</g>
<defs>
<clipPath id="clip0_1_12696">
<rect width="20" height="20" fill="white"/>
</clipPath>
</defs>
</svg>
