<svg width="40" height="40" viewBox="0 0 40 40" fill="none" xmlns="http://www.w3.org/2000/svg">
<g id="ant-design:cloud-upload-outlined">
<g id="Group 40172">
<path id="Vector" d="M20.2344 17.9918C20.2066 17.9555 20.171 17.9262 20.1304 17.9061C20.0898 17.886 20.0452 17.8755 20.0001 17.8755C19.9549 17.8755 19.9103 17.886 19.8697 17.9061C19.8291 17.9262 19.7935 17.9555 19.7657 17.9918L15.599 23.3593C15.5647 23.404 15.5434 23.4576 15.5375 23.514C15.5317 23.5704 15.5416 23.6273 15.566 23.6783C15.5905 23.7293 15.6285 23.7722 15.6758 23.8022C15.7231 23.8322 15.7777 23.8481 15.8334 23.8479H18.5827V33.0299C18.5827 33.1966 18.7166 33.333 18.8803 33.333H21.1124C21.2761 33.333 21.41 33.1966 21.41 33.0299V23.8517H24.1667C24.416 23.8517 24.5536 23.5601 24.4011 23.3631L20.2344 17.9918Z" fill="#FFC701"/>
<path id="Vector_2" d="M31.1384 14.4962C29.4345 9.92036 25.093 6.6665 20.0074 6.6665C14.9219 6.6665 10.5803 9.91657 8.87647 14.4924C5.68822 15.3447 3.33331 18.3031 3.33331 21.8183C3.33331 26.004 6.66293 29.3942 10.7701 29.3942H12.2619C12.4256 29.3942 12.5595 29.2579 12.5595 29.0912V26.8184C12.5595 26.6517 12.4256 26.5154 12.2619 26.5154H10.7701C9.51635 26.5154 8.33703 26.0078 7.45906 25.0873C6.5848 24.1706 6.11977 22.9358 6.16069 21.6554C6.19418 20.6554 6.529 19.716 7.1354 18.9243C7.75668 18.1175 8.62721 17.5304 9.59447 17.269L11.0044 16.894L11.5216 15.5076C11.8415 14.6439 12.2879 13.8371 12.8497 13.106C13.4043 12.3814 14.0612 11.7444 14.7991 11.2158C16.3281 10.1211 18.1287 9.54156 20.0074 9.54156C21.8861 9.54156 23.6867 10.1211 25.2158 11.2158C25.9561 11.7461 26.6108 12.3825 27.1652 13.106C27.7269 13.8371 28.1733 14.6477 28.4933 15.5076L29.0067 16.8902L30.4129 17.269C32.4293 17.822 33.8393 19.6895 33.8393 21.8183C33.8393 23.0721 33.3594 24.254 32.4888 25.1404C32.0619 25.5776 31.554 25.9242 30.9946 26.1603C30.4352 26.3963 29.8354 26.517 29.2299 26.5154H27.7381C27.5744 26.5154 27.4405 26.6517 27.4405 26.8184V29.0912C27.4405 29.2579 27.5744 29.3942 27.7381 29.3942H29.2299C33.337 29.3942 36.6666 26.004 36.6666 21.8183C36.6666 18.3069 34.3192 15.3523 31.1384 14.4962Z" fill="#FFC701"/>
</g>
</g>
</svg>
