<svg width="19" height="19" viewBox="0 0 19 19" fill="none" xmlns="http://www.w3.org/2000/svg">
<path d="M6.96129 7.05518C7.46529 6.44518 8.22829 6.05518 9.08229 6.05518C9.93629 6.05518 10.6993 6.44518 11.2033 7.05518C11.5351 7.45749 11.7457 7.94586 11.8105 8.46332C11.8753 8.98077 11.7916 9.50599 11.5692 9.97769C11.3468 10.4494 10.9949 10.8481 10.5545 11.1274C10.114 11.4067 9.60329 11.555 9.08179 11.555C8.56029 11.555 8.04954 11.4067 7.60912 11.1274C7.1687 10.8481 6.81677 10.4494 6.59438 9.97769C6.37199 9.50599 6.28831 8.98077 6.35309 8.46332C6.41788 7.94586 6.62847 7.45749 6.96029 7.05518H6.96129Z" fill="white"/>
<path d="M12.8323 8.80518C12.8323 8.17318 12.6763 7.57718 12.4003 7.05518H16.5823C16.9801 7.05518 17.3617 7.21321 17.643 7.49452C17.9243 7.77582 18.0823 8.15735 18.0823 8.55518V9.05518C18.0823 10.6422 16.8763 12.2672 14.7673 12.8392C14.5506 12.4499 14.2337 12.1255 13.8496 11.8998C13.4654 11.674 13.0279 11.5551 12.5823 11.5552H11.6323C12.0114 11.2045 12.3137 10.7791 12.5202 10.3058C12.7267 9.8325 12.833 9.32156 12.8323 8.80518Z" fill="white"/>
<path d="M12.5823 12.5552C12.7794 12.5547 12.9747 12.5931 13.1569 12.6683C13.3392 12.7435 13.5047 12.854 13.6441 12.9933C13.7835 13.1327 13.894 13.2983 13.9692 13.4805C14.0444 13.6628 14.0828 13.8581 14.0823 14.0552V14.5552C14.0823 16.5262 12.2223 18.5552 9.08228 18.5552C5.94228 18.5552 4.08228 16.5262 4.08228 14.5552V14.0552C4.08175 13.8581 4.12019 13.6628 4.19539 13.4805C4.27058 13.2983 4.38105 13.1327 4.52044 12.9933C4.65984 12.854 4.82541 12.7435 5.00763 12.6683C5.18986 12.5931 5.38515 12.5547 5.58228 12.5552H12.5823Z" fill="white"/>
<path d="M0.0822754 9.05518C0.0822754 10.6422 1.28828 12.2672 3.39728 12.8392C3.61401 12.4499 3.93085 12.1255 4.31501 11.8998C4.69918 11.674 5.13669 11.5551 5.58228 11.5552H6.53228C6.15324 11.2045 5.85094 10.7791 5.64441 10.3058C5.43789 9.8325 5.33161 9.32156 5.33228 8.80518C5.33228 8.17318 5.48828 7.57718 5.76528 7.05518H1.58228C1.18445 7.05518 0.80292 7.21321 0.521615 7.49452C0.240311 7.77582 0.0822754 8.15735 0.0822754 8.55518V9.05518Z" fill="white"/>
<path d="M7.83228 3.30518C7.83228 2.57583 7.54254 1.87636 7.02682 1.36063C6.51109 0.844907 5.81162 0.555176 5.08228 0.555176C4.35293 0.555176 3.65346 0.844907 3.13773 1.36063C2.62201 1.87636 2.33228 2.57583 2.33228 3.30518C2.33228 4.03452 2.62201 4.73399 3.13773 5.24972C3.65346 5.76544 4.35293 6.05518 5.08228 6.05518C5.81162 6.05518 6.51109 5.76544 7.02682 5.24972C7.54254 4.73399 7.83228 4.03452 7.83228 3.30518Z" fill="white"/>
<path d="M15.8323 3.30518C15.8323 2.57583 15.5425 1.87636 15.0268 1.36063C14.5111 0.844907 13.8116 0.555176 13.0823 0.555176C12.3529 0.555176 11.6535 0.844907 11.1377 1.36063C10.622 1.87636 10.3323 2.57583 10.3323 3.30518C10.3323 4.03452 10.622 4.73399 11.1377 5.24972C11.6535 5.76544 12.3529 6.05518 13.0823 6.05518C13.8116 6.05518 14.5111 5.76544 15.0268 5.24972C15.5425 4.73399 15.8323 4.03452 15.8323 3.30518Z" fill="white"/>
</svg>
