<svg width="16" height="16" viewBox="0 0 16 16" fill="none" xmlns="http://www.w3.org/2000/svg">
<rect width="16" height="16" rx="8" fill="#DDDDDD"/>
<path d="M8.93909 7.99943L11.803 5.14179C11.9284 5.01635 11.9989 4.84623 11.9989 4.66884C11.9989 4.49146 11.9284 4.32133 11.803 4.1959C11.6776 4.07047 11.5075 4 11.3301 4C11.1528 4 10.9827 4.07047 10.8572 4.1959L8 7.06021L5.14276 4.1959C5.01735 4.07047 4.84725 4 4.66988 4C4.49252 4 4.32242 4.07047 4.19701 4.1959C4.07159 4.32133 4.00114 4.49146 4.00114 4.66884C4.00114 4.84623 4.07159 5.01635 4.19701 5.14179L7.06091 7.99943L4.19701 10.8571C4.13458 10.919 4.08504 10.9927 4.05122 11.0738C4.01741 11.155 4 11.2421 4 11.33C4 11.418 4.01741 11.505 4.05122 11.5862C4.08504 11.6674 4.13458 11.741 4.19701 11.803C4.25892 11.8654 4.33259 11.915 4.41375 11.9488C4.49491 11.9826 4.58196 12 4.66988 12C4.75781 12 4.84486 11.9826 4.92602 11.9488C5.00718 11.915 5.08085 11.8654 5.14276 11.803L8 8.93866L10.8572 11.803C10.9192 11.8654 10.9928 11.915 11.074 11.9488C11.1551 11.9826 11.2422 12 11.3301 12C11.418 12 11.5051 11.9826 11.5863 11.9488C11.6674 11.915 11.7411 11.8654 11.803 11.803C11.8654 11.741 11.915 11.6674 11.9488 11.5862C11.9826 11.505 12 11.418 12 11.33C12 11.2421 11.9826 11.155 11.9488 11.0738C11.915 10.9927 11.8654 10.919 11.803 10.8571L8.93909 7.99943Z" fill="#090909"/>
</svg>
