<svg width="16" height="20" viewBox="0 0 16 20" fill="none" xmlns="http://www.w3.org/2000/svg">
<path d="M14.2381 6.35567V13.2628C13.7174 12.9622 13.1121 12.8418 12.516 12.9203C11.92 12.9987 11.3664 13.2717 10.9413 13.6968C10.5162 14.122 10.2432 14.6755 10.1647 15.2716C10.0863 15.8677 10.2067 16.473 10.5073 16.9937C10.8079 17.5143 11.2719 17.9213 11.8274 18.1513C12.3829 18.3814 12.9987 18.4218 13.5795 18.2661C14.1602 18.1105 14.6734 17.7676 15.0393 17.2906C15.4053 16.8136 15.6037 16.2292 15.6037 15.628V1.87109C15.6039 1.6958 15.5619 1.52304 15.4813 1.36738C15.4007 1.21173 15.2838 1.07776 15.1405 0.976792C14.9972 0.875821 14.8317 0.810811 14.658 0.787254C14.4843 0.763697 14.3075 0.782284 14.1425 0.841444L5.40279 3.96317C5.19092 4.03913 5.00768 4.17868 4.87813 4.36274C4.74858 4.5468 4.67905 4.76638 4.67903 4.99145V14.627C4.1584 14.3264 3.55315 14.206 2.95712 14.2844C2.36109 14.3629 1.80759 14.6358 1.38245 15.0608C0.957308 15.4859 0.684282 16.0393 0.605708 16.6353C0.527134 17.2313 0.647402 17.8366 0.947862 18.3573C1.24832 18.878 1.71219 19.285 2.26753 19.5152C2.82286 19.7455 3.43865 19.786 4.01938 19.6306C4.60012 19.4752 5.11337 19.1326 5.47954 18.6558C5.8457 18.179 6.04433 17.5947 6.04461 16.9936V9.28212L14.2381 6.35704V6.35567Z" fill="white"/>
</svg>
