<svg width="500" height="500" viewBox="0 0 500 500" fill="none" xmlns="http://www.w3.org/2000/svg">
<g clip-path="url(#clip0)">
<path d="M10.2739 500H179.794C260.178 500 325.342 434.836 325.342 354.452H155.822C75.438 354.452 10.2739 419.616 10.2739 500Z" fill="#ffffff0d"/>
<path d="M10.2739 154.11V368.151C90.6578 368.151 155.822 302.987 155.822 222.603V8.56165C75.438 8.56165 10.2739 73.7257 10.2739 154.11Z" fill="#ffffff0d"/>
<path d="M489.726 0H320.206C239.822 0 174.658 65.164 174.658 145.548H344.178C424.562 145.548 489.726 80.3839 489.726 0Z" fill="#ffffff0d"/>
<path d="M489.726 345.89V131.849C409.342 131.849 344.178 197.013 344.178 277.397V491.438C424.562 491.438 489.726 426.274 489.726 345.89Z" fill="#ffffff0d"/>
</g>
<defs>
<clipPath id="clip0">
<rect width="500" height="500" fill="#ffffff0d"/>
</clipPath>
</defs>
</svg>
