<svg width="143" height="120" viewBox="0 0 143 120" fill="none" xmlns="http://www.w3.org/2000/svg">
<path fill-rule="evenodd" clip-rule="evenodd" d="M142.873 18.7419C121.549 29.1541 110.887 41.3882 110.887 55.4447C119.976 56.4859 127.492 60.1735 133.434 66.5076C139.377 72.8417 142.349 80.1735 142.349 88.5033C142.349 97.3536 139.465 104.816 133.697 110.889C127.928 116.963 120.675 120 111.935 120C102.147 120 93.6701 116.052 86.5037 108.156C79.3374 100.26 75.7542 90.6725 75.7542 79.3926C75.7542 45.553 94.806 19.089 132.91 0L142.873 18.7419ZM67.6186 18.7419C46.1196 29.1541 35.3702 41.3882 35.3702 55.4447C44.634 56.4859 52.2373 60.1735 58.1801 66.5076C64.1229 72.8417 67.0943 80.1735 67.0943 88.5033C67.0943 97.3536 64.1666 104.816 58.3112 110.889C52.4557 116.963 45.1584 120 36.419 120C26.6308 120 18.1973 116.052 11.1184 108.156C4.03942 100.26 0.5 90.6725 0.5 79.3926C0.5 45.553 19.4643 19.089 57.3935 0L67.6186 18.7419Z" fill="#C79C03"/>
</svg>
