<svg width="59" height="61" viewBox="0 0 59 61" fill="none" xmlns="http://www.w3.org/2000/svg">
<path d="M29.665 0.109863C28.174 0.109863 26.6925 0.594479 25.4161 1.48063L21.4655 4.14832L16.9137 4.72525H16.8397L16.7658 4.79679C15.2729 5.1229 13.9062 5.8516 12.824 6.89843C11.7418 7.94525 10.9885 9.26733 10.6513 10.7114L10.5798 10.7829V10.8545L9.98335 15.3268L7.22554 18.7883L7.1492 18.8599V18.9314C5.48163 21.5091 5.40767 24.8368 7.22554 27.2968L10.0573 31.1183L10.804 35.0876L3.1246 46.4068L0.664993 49.9422H12.0708L14.8286 56.1429L16.5439 60.1099L19.0035 56.5029L26.5326 45.5414C28.5557 46.3445 30.8387 46.4183 32.7974 45.5414L40.3265 56.5029L42.7861 60.1099L44.5014 56.1429L47.2592 49.9422H58.665L56.2054 46.4068L48.7502 35.4476L49.3466 31.1206L52.1045 27.2991L52.1808 27.2276V27.156C53.8484 24.5783 53.9223 21.3222 52.1045 18.8622L49.3466 15.0383L48.452 10.7114H48.526C48.5164 10.656 48.4616 10.6191 48.452 10.566C48.0226 7.54756 45.5534 5.09679 42.4139 4.72525H42.3376L37.8645 4.14832L33.9138 1.48063C32.68 0.60629 31.1944 0.127006 29.665 0.109863ZM29.665 4.79679C30.2137 4.79679 30.7552 4.95832 31.156 5.23063L35.4049 8.18679L35.9273 8.54679L36.5237 8.62063L41.7436 9.34063H41.8151C42.8887 9.45602 43.633 10.1783 43.7547 11.2168V11.3599L44.7256 16.4806L44.7972 16.986L45.1717 17.4176L48.2278 21.5276C48.7979 22.2937 48.8719 23.5929 48.1538 24.7006L44.7996 29.2445L44.7232 29.8214L43.9789 34.8706V34.9399C43.9392 35.3005 43.8117 35.6469 43.6068 35.9506L43.4565 36.0245V36.0937C43.1019 36.5056 42.5934 36.7653 42.0418 36.816H41.8915L36.4498 37.7552L35.8534 37.8245L35.4049 38.1868L31.156 41.1429C30.364 41.6945 28.9469 41.766 27.8018 41.0714L23.9251 38.1868L23.4766 37.8268L22.8062 37.7529L17.5864 37.0329H17.5149C17.1775 37.0041 16.8523 36.8973 16.5667 36.7214C16.281 36.5454 16.0433 36.3056 15.8735 36.0222C15.715 35.756 15.6136 35.4617 15.5753 35.1568V35.0137L14.6068 29.7499L14.5304 29.1729L14.1582 28.7391L11.1022 24.6291C10.5321 23.8629 10.4581 22.4922 11.1762 21.3845L14.1582 17.6345L14.5304 17.2006L14.6044 16.5522L15.2771 11.7199C15.2867 11.6852 15.3415 11.6852 15.3511 11.6483C15.4998 11.0928 15.7994 10.5859 16.2189 10.1801C16.6384 9.77434 17.1624 9.4845 17.7367 9.34063C17.7749 9.3314 17.7749 9.27832 17.8107 9.26909L22.8062 8.61832L23.4027 8.54909L23.9251 8.18679L28.174 5.23063C28.5748 4.96063 29.1163 4.79679 29.665 4.79679ZM46.1403 39.9176L49.7951 45.3268H44.0505L43.4541 46.7691L41.8151 50.4452L36.7456 42.9452L37.8621 42.1537L42.5618 41.3599V41.4314C42.6167 41.4222 42.6525 41.3691 42.7097 41.3599C43.9654 41.1846 45.1493 40.6865 46.1379 39.9176H46.1403ZM13.1897 39.9891C14.2256 40.9001 15.527 41.4796 16.9161 41.6483H16.99L21.5395 42.2252L22.582 43.0191L17.5125 50.4452L15.8735 46.7691L15.2771 45.3268H9.53724L13.1897 39.9891Z" fill="url(#paint0_linear_500_519)"/>
<defs>
<linearGradient id="paint0_linear_500_519" x1="0.664993" y1="0.418736" x2="58.0659" y2="60.9865" gradientUnits="userSpaceOnUse">
<stop stop-color="white"/>
<stop offset="1" stop-color="#FFC701"/>
</linearGradient>
</defs>
</svg>
